<svg xmlns="http://www.w3.org/2000/svg"
  xmlns:xlink="http://www.w3.org/1999/xlink" viewBox="0 0 37.482639 47.367703">
  <g transform="matrix(.35278 0 0 .35278 -16.466178 -94.961588)">
    <path d="M65.335938 342.08203s-12.480469 9.10547-1.175782 26.73438l2.40625-6.90235s-1.84375 17.35938 35.359374 17.44531c26.61328.0586 29.05469-15.47265 29.05469-15.47265L131 372.02344s16.83594-22.3125 3.75-35.11328c-13.08594-12.80469-69.414062 5.17187-69.414062 5.17187" fill="#51190c"/>
    <path d="M132.34766 388.18359c-18.14453-7.30078-24.1211-16.375-22.57032-29.42968H89.824219c1.550781 13.05468-4.425781 22.1289-22.570313 29.42968-18.144531 7.30078-20.578125 15.26953-20.578125 15.26953H152.92578s-2.43359-7.96875-20.57812-15.26953" fill="#a1e3f3"/>
    <path d="M76.832031 383.49609l.539063.42969c6.820312 5.44531 14.574218 8.32422 22.429687 8.32422 7.855469 0 15.609379-2.87891 22.429689-8.32422l.53906-.42969c-.61719-.37109-1.21875-.75-1.78515-1.13281-6.28907 5.01953-13.50391 7.88672-21.183599 7.88672-7.675781 0-14.890625-2.86719-21.179687-7.88672-.570313.38281-1.171875.76172-1.789063 1.13281" fill="#fff"/>
    <path d="M78.621094 382.36328c6.289062 5.01953 13.5 7.88672 21.179687 7.88672 7.679689 0 14.894529-2.86719 21.183599-7.88672-9.28907-6.24609-12.3711-13.80469-11.20704-23.60937H89.824219c1.164062 9.80468-1.914063 17.36328-11.203125 23.60937" fill="#fd998a"/>
    <path d="M109.77734 358.75391H89.824219c.777343 6.55859-.355469 12.10937-3.964844 16.9375 4.257813 2.33984 9.023437 3.66796 14.054687 3.66796 4.968748 0 9.671878-1.30078 13.890628-3.58593-3.66016-4.84766-4.8086-10.42188-4.02735-17.01953" fill="#fd6e57"/>
    <path d="M74.261719 335.03906c3.34375 6.39453 1.945312 13.73047-3.128907 16.38672-5.074218 2.65234-11.898437-.38281-15.242187-6.78125s-1.941406-13.73047 3.128906-16.38281c5.074219-2.65625 11.898438.38281 15.242188 6.77734" fill="#fd998a"/>
    <path d="M71.328125 347.25391c-.01953-.26172-.07031-.48829-.09766-.73829.03906.17969.0625.33204.07813.45313-.03516-1.30078-.222656-2.36719-.554688-3.20313-2.640625-10.82812-12.765625-11.91796-12.765625-11.91796 5.128907 3.09375 8.332031 6.50781 10.3125 9.33984-3.640625-1.48047-9.265625 1.66016-9.265625 1.66016 6.675782-1.77344 9.710938-.30469 11.105469 1.39453.921875 1.83203 1.1875 3.01172 1.1875 3.01172" fill="#fd6e57"/>
    <path d="M70.273438 350.28906s-10.355469-12.02344-5.617188-28.65234l14.984375.71484v25.66016zm0 0" fill="#6e2b19"/>
    <path d="M125.5625 335.03906c-3.34375 6.39453-1.94141 13.73047 3.13281 16.38672 5.07422 2.65234 11.89453-.38281 15.24219-6.78125 3.34375-6.39844 1.94141-13.73047-3.13281-16.38281-5.07422-2.65625-11.89844.38281-15.24219 6.77734" fill="#fd998a"/>
    <path d="M128.5 347.25391c.0195-.26172.0664-.48829.0937-.73829-.0352.17969-.0586.33204-.0742.45313.0312-1.30078.22266-2.36719.55469-3.20313 2.64062-10.82812 12.76562-11.91796 12.76562-11.91796-5.1289 3.09375-8.33203 6.50781-10.3164 9.33984 3.64062-1.48047 9.26953 1.66016 9.26953 1.66016-6.67578-1.77344-9.71485-.30469-11.10547 1.39453-.92188 1.83203-1.1875 3.01172-1.1875 3.01172" fill="#fd6e57"/>
    <path d="M129.75391 350.28906s10.35546-12.02344 5.61718-28.65234l-14.98437.71484v25.66016zm0 0" fill="#6e2b19"/>
    <path d="M90.570312 298.65234c-11.75 0-21.3125 9.46094-21.433593 21.21094l-.214844 20.43359c0 18.6875 13.875 34.86719 30.992187 34.86719 17.113278 0 30.988278-16.17969 30.988278-34.86719l-.0586-21.67968c-.0273-11.03516-8.98437-19.96485-20.01953-19.96485zm0 0" fill="#ebb891"/>
    <path d="M99.914062 370.40625c-12.363281 0-23.144531-7.30078-28.898437-17.75391 4.488281 12.92969 15.730469 22.51172 28.898437 22.51172 13.167968 0 24.410158-9.58203 28.898438-22.51172-5.75391 10.45313-16.53906 17.75391-28.898438 17.75391" fill="#ffcfab"/>
    <path d="M59.527344 293.78125c-.308594-19.8125 26.3125-23.83594 26.3125-23.83594 21.605466-2.57812 32.421876 1.59766 36.152346 9.22266 5.5-1.57031 13.60156-1.75391 19.3164 7.45703 9.1875 14.80859-5.3164 26.86328 6.44532 38.31641 0 0-9.82813 10.88671-20.52344 2.8789-5.99609-4.48828-6.37891-14.35937-6.85547-23.74219-2.25781 8.03516-7.98047 17.97657-25.246094 18.17969-26.3125.3125-26.6875 11.73828-26.6875 11.73828s-5.414062-2.07031-11.699218-7.09375c-16.878907-13.49609 2.785156-33.12109 2.785156-33.12109" fill="#6e2b19"/>
    <path d="M121.99219 279.16797c-3.73047-7.625-14.54688-11.80078-36.152346-9.22266 0 0-26.621094 4.02344-26.3125 23.83594 0 0 5.40625-14.54688 21.050781-18.52344 15.648437-3.97656 27.714845-4.11328 41.414065 3.91016M144.35156 301.58984c.4961-4.70312.25-9.65625-3.04297-14.96484-5.71484-9.21094-13.8164-9.02734-19.3164-7.45703 0 0 17.55859.41015 22.35937 22.42187" fill="#ba4c2e"/>
    <path d="M115.86328 331.375c0 2.42969-.82422 4.40234-1.83594 4.40234-1.01953 0-1.83984-1.97265-1.83984-4.40234 0-2.43359.82031-4.40234 1.83984-4.40234 1.01172 0 1.83594 1.96875 1.83594 4.40234" fill="#1e2847"/>
    <path d="M122.68359 326.55469c.23829-.13672-9.94921-6.57422-16.24218-6.34375-.0781.10156.1289-5.61719 8.47265-2.6211 8.08594 3.33203 7.69922 9.0586 7.76953 8.96485" fill="#351107"/>
    <path d="M83.960938 331.375c0 2.42969.824218 4.40234 1.839843 4.40234s1.839844-1.97265 1.839844-4.40234c0-2.43359-.824219-4.40234-1.839844-4.40234s-1.839843 1.96875-1.839843 4.40234" fill="#1e2847"/>
    <path d="M76.210938 326.55469c-.238282-.13672 9.949218-6.57422 16.242187-6.34375.07813.10156-.125-5.61719-8.472656-2.6211-8.085938 3.33203-7.695313 9.0586-7.769531 8.96485" fill="#351107"/>
    <path d="M81.394531 346.32422c-.121093 0-.242187-.0274-.355469-.082-.40625-.19532-.574218-.6836-.378906-1.08594l2.566406-5.31641c.199219-.40625.683594-.57422 1.089844-.3789.40625.19531.574219.67968.378906 1.08593l-2.566406 5.31641c-.144531.29297-.433594.46094-.734375.46094M76.257812 346.32422c-.117187 0-.238281-.0274-.355468-.082-.402344-.19532-.574219-.6836-.378906-1.08594l2.570312-5.31641c.195312-.40625.683594-.57422 1.085938-.3789.40625.19531.578124.67968.378906 1.08593l-2.566406 5.31641c-.140626.29297-.429688.46094-.734376.46094M117.94531 346.32422c-.30468 0-.59375-.16797-.73437-.46094l-2.56641-5.31641c-.19922-.40625-.0273-.89062.37891-1.08593.40625-.19532.89062-.0274 1.08594.3789l2.57031 5.31641c.19531.40234.0234.89062-.38281 1.08594-.11329.0547-.23438.082-.35157.082M123.08203 346.32422c-.30469 0-.59375-.16797-.73437-.46094l-2.57032-5.31641c-.19531-.40625-.0273-.89062.37891-1.08593.40625-.19532.89453-.0274 1.08984.3789l2.56641 5.31641c.19531.40234.0273.89062-.37891 1.08594-.11328.0547-.23437.082-.35156.082M91.898438 344.53906s8.128902 4.14844 16.261722 0c0 0 1.66015-5.67187-8.13282-5.64453-9.472652.0273-8.128902 5.64453-8.128902 5.64453M108.11719 352.24219c.39844-.25782.7539-.51953 1.0664-.76953.37891-.30079.4375-.84766.13672-1.22657-.30078-.375-.83984-.4375-1.22265-.13672-.30078.23829-7.28907 5.70704-12.269535.73047-.34375-.33984-.890625-.33593-1.234375.004-.339844.33984-.339844.89062 0 1.23047 4.351562 4.34375 10.23828 2.3164 13.52344.16797" fill="#fd6e57"/>
  </g>
</svg>
