<svg xmlns="http://www.w3.org/2000/svg"
  xmlns:xlink="http://www.w3.org/1999/xlink" viewBox="0 0 37.482639 48.570623">
  <g transform="matrix(.35278 0 0 .35278 -160.859775 -93.75867)">
    <path d="M541.64844 388.18359c-18.14063-7.30078-24.11719-16.375-22.56641-29.42968h-19.95312c1.54687 13.05468-4.42579 22.1289-22.57032 29.42968s-20.57812 15.26953-20.57812 15.26953h106.25s-2.4336-7.96875-20.58203-15.26953" fill="#ffde57"/>
    <path d="M509.10547 390.87109c7.61719 0 14.35547-4.67187 17.08594-11.71093-.55469-.50782-1.07032-1.02344-1.5586-1.55079h.004c-2.14453 6.53516-8.28125 11.26172-15.53125 11.26172s-13.39063-4.72656-15.53125-11.26172c-.48438.52344-1.00391 1.04297-1.55469 1.55079 2.73047 7.03906 9.46875 11.71093 17.08594 11.71093" fill="#fff"/>
    <path d="M524.63672 377.60937c-4.8711-5.26562-6.4375-11.41015-5.55469-18.85546h-19.95312c.88281 7.44531-.6836 13.58984-5.55469 18.85546 2.14062 6.53516 8.28125 11.26172 15.53125 11.26172s13.38672-4.72656 15.53125-11.26172" fill="#f37f73"/>
    <path d="M524.61328 377.58594c-4.85156-5.25782-6.41406-11.39844-5.53125-18.83203h-19.95312c.88281 7.44531-.6875 13.58984-5.55469 18.85546.0195.0547.043.10938.0625.16407 4.15234 1.20312 9.07812 1.87109 14.9375 1.87109 6.39453 0 11.67187-.73828 16.03906-2.05859" fill="#f36e61"/>
    <path d="M473.87109 343.89062s-1.66797-21.93359 18.36719-29.59765c20.03516-7.66406 31.71875-13.49219 32.55469-28.65625 0 0 6.26172 13.21875 0 22.16015 0 0 7.51562.38672 8.76562-4.66406 0 0 2.92188 8.32813 1.67188 11.16016 0 0 3.7539-.27735 4.17187-5.71875l2.50391 28.76562 1.67187 6.55078 6.11719-20.36328s16.01172-37.89062-17.83203-47.79687c0 0-28.42578-24.69141-58.02734 3.6875 0 0-23.88672 19.0664-7.89453 48.98047zm0 0" fill="#35334a"/>
    <path d="M473.83594 279.41797s-9.40235 7.51172-12.45703 20.5c3.08984-5.1875 13.66796-21.04297 30.22265-26.01953 19.89844-5.98438 40.26172 1.83203 40.26172 1.83203s-28.42578-24.69141-58.02734 3.6875M553.24219 308.84375v-.004c1.18359-11.78125-1.47657-27.28125-21.37891-33.10937 0 0 21.98047 13.8789 21.37891 33.11328" fill="#575175"/>
    <path d="M480.02344 331.21875c3.68359 7.04297 2.13672 15.12109-3.44922 18.04297-5.58203 2.91797-13.09766-.42188-16.77735-7.46485-3.68359-7.04296-2.14062-15.12109 3.44532-18.03906 5.58593-2.92187 13.09765.41797 16.78125 7.46094" fill="#fd8775"/>
    <path d="M476.79297 344.66797c-.0234-.28906-.0781-.53516-.10547-.8125.0391.19922.0664.36719.082.5-.0352-1.4336-.24609-2.60547-.60937-3.52735-2.91016-11.92187-14.05469-13.12109-14.05469-13.12109 5.64453 3.40625 9.17187 7.16797 11.35547 10.28516-4.00782-1.63672-10.20313 1.82031-10.20313 1.82031 7.34766-1.94531 10.69141-.33203 12.22656 1.53906 1.01172 2.01953 1.3086 3.31641 1.3086 3.31641" fill="#fd5e42"/>
    <path d="M474.4375 347.25391s-9.13672-23.73829 1.26562-37.16016l6.32032 17.61328zm0 0" fill="#35334a"/>
    <path d="M536.50781 331.21875c-3.68359 7.04297-2.14062 15.12109 3.44531 18.04297 5.58594 2.91797 13.09766-.42188 16.78125-7.46485 3.67969-7.04296 2.13672-15.12109-3.44921-18.03906-5.58594-2.92187-13.09766.41797-16.77735 7.46094" fill="#fd8775"/>
    <path d="M539.73828 344.66797c.0195-.28906.0742-.53516.10547-.8125-.043.19922-.0664.36719-.082.5.0352-1.4336.24219-2.60547.60547-3.52735 2.91015-11.92187 14.05859-13.12109 14.05859-13.12109-5.64844 3.40625-9.17187 7.16797-11.35547 10.28516 4.00781-1.63672 10.20313 1.82031 10.20313 1.82031-7.35157-1.94531-10.69532-.33203-12.23047 1.53906-1.01172 2.01953-1.30469 3.31641-1.30469 3.31641" fill="#fd5e42"/>
    <path d="M539.95312 349.26172s10.11719-6.29688 4.14063-35.10156l-12.48047 4.03125zm0 0" fill="#35334a"/>
    <path d="M541.90625 337.33984l-2.50391-28.76562c-.41797 5.4414-4.17187 5.71875-4.17187 5.71875 1.25-2.83203-1.67188-11.16016-1.67188-11.16016-1.25 5.05078-8.76562 4.66406-8.76562 4.66406 6.26172-8.9414 0-22.16015 0-22.16015-.83594 15.16406-12.51953 20.99219-32.55469 28.65625-14.96094 5.72265-17.81641 19.39453-18.30859 25.95703.54297 18.09766 5.93359 34.75781 34.63281 34.75781 25.01172 0 32.21094-11.75781 34.07812-26.0625.50782-3.875.23047-7.8164-.73437-11.60547" fill="#ebae82"/>
    <path d="M525.75 328.38672c0 2.68359-.95313 4.85937-2.125 4.85937-1.17188 0-2.12109-2.17578-2.12109-4.85937 0-2.6836.94921-4.85938 2.12109-4.85938 1.17187 0 2.125 2.17578 2.125 4.85938M491.62109 328.38672c0 2.68359.94922 4.85547 2.1211 4.85547 1.17187 0 2.12109-2.17188 2.12109-4.85547 0-2.6836-.94922-4.85938-2.12109-4.85938-1.17188 0-2.1211 2.17578-2.1211 4.85938" fill="#170a1e"/>
    <path d="M484.27344 323.18359s11.77343-3.82422 17.65625-3.48437c0 0-.99219-6.56641-8.01953-5.40235-8.33204 1.38282-9.63672 8.88672-9.63672 8.88672M533.87891 320.12891s-12.14454-2.38282-17.94532-1.33985c0 0 .19922-6.64062 7.31641-6.32422 8.4375.3711 10.62891 7.66407 10.62891 7.66407" fill="#35334a"/>
    <path d="M491.61719 344.88672c-.13672 0-.27344-.0312-.40625-.0899-.46875-.21875-.66407-.7539-.4375-1.20312l2.96484-5.86719c.22656-.44531.78516-.63281 1.25391-.41797.46875.21485.66406.75391.4375 1.19922l-2.96094 5.86719c-.16406.32422-.5.51172-.85156.51172M485.69141 344.88281c-.13672 0-.27735-.0273-.40625-.0859-.46875-.21875-.66407-.7539-.4375-1.20312l2.96093-5.86719c.22657-.44531.78907-.6289 1.25782-.41797.46875.21485.66406.75391.4375 1.19922l-2.96485 5.86719c-.16015.32031-.49609.51172-.84765.50781M527.53125 344.88672c-.35156 0-.68359-.1875-.84766-.51172l-2.96484-5.86719c-.22266-.44531-.0273-.98437.4375-1.19922.46875-.21093 1.03125-.0273 1.25781.41797l2.96094 5.8711c.22656.44531.0312.98437-.4375 1.19921-.12891.0586-.26953.0899-.40625.0899M532.19922 344.36328c-.35156 0-.6836-.1875-.84766-.50781l-2.96484-5.86719c-.22266-.44922-.0273-.98437.4375-1.20312.46875-.21094 1.03125-.0274 1.25781.42187l2.96094 5.86719c.22656.44531.0312.98437-.4375 1.19922-.12891.0625-.26953.0898-.40625.0898M514.05078 337.86719c0 2.92968-1.98047 5.30859-4.42578 5.30859-2.44141 0-4.42578-2.37891-4.42578-5.30859 0-2.9336 1.98437-6.60157 4.42578-6.60157 2.44531 0 4.42578 3.66797 4.42578 6.60157M511.94922 350.94531c-9.48828 0-15.39063-4.54297-15.69922-4.78515-.44531-.35157-.52344-.9961-.17188-1.44532.35157-.44922 1-.52734 1.44922-.17578.0859.0664 8.86328 6.77344 21.9336 3.34766.55078-.13672 1.11328.1875 1.26172.73828.14062.55078-.1875 1.11719-.74219 1.26172-2.89063.75781-5.58203 1.05859-8.03125 1.05859" fill="#fd5e42"/>
    <path d="M524.80859 285.67187c-.008-.0195-.0156-.0351-.0156-.0351 0 .0312-.004.0586-.004.0898.004-.0195.0117-.0391.0195-.0547" fill="#ffc291"/>
    <path d="M508.57812 368.14453c-18.3125 0-27.90625-5.71484-32.83984-14.08203 3.23828 11.94922 11.73828 20.94531 32.82422 20.94531 21.53516 0 29.85937-8.71875 32.95312-20.27344-4.86328 7.97266-14.41406 13.41016-32.9375 13.41016" fill="#ffbf8f"/>
  </g>
</svg>
