<svg xmlns="http://www.w3.org/2000/svg"
  xmlns:xlink="http://www.w3.org/1999/xlink" viewBox="0 0 37.481262 44.276368">
  <g transform="matrix(.35278 0 0 .35278 -64.241382 -98.052927)">
    <path d="M273.82812 337.05859c0 27.71094-17.77343 50.17188-39.69921 50.17188-21.92579 0-39.69922-22.46094-39.69922-50.17188 0-27.71093 17.77343-50.17578 39.69922-50.17578 21.92578 0 39.69921 22.46485 39.69921 50.17578" fill="#302611"/>
    <path d="M267.76953 388.05859c-18.14453-7.30078-24.11719-16.37109-22.57031-29.42578H225.25c1.54687 13.05469-4.42578 22.125-22.57031 29.42578-18.14453 7.30469-20.57813 15.26953-20.57813 15.26953h106.2461s-2.42969-7.96484-20.57813-15.26953" fill="#de5123"/>
    <path d="M267.76953 388.05859c-3.76562-1.51562-7.00391-3.10937-9.76562-4.80078h-45.5586c-2.76172 1.69141-5.99609 3.28516-9.76562 4.80078-18.14453 7.30469-20.57813 15.26953-20.57813 15.26953h106.2461s-2.42969-7.96484-20.57813-15.26953" fill="#fff"/>
    <path d="M225.88281 298.52734c-11.7539 0-21.3125 9.46094-21.43359 21.21094l-.21485 20.43359c0 18.6875 13.875 33.83594 30.99219 33.83594 17.11328 0 30.98828-15.14844 30.98828-33.83594l-.0586-21.67578c-.0273-11.03906-8.98438-19.96875-20.01953-19.96875zm0 0" fill="#ff8a63"/>
    <path d="M235.22656 370.20312c-12.53906 0-23.42578-7.26562-28.94531-17.92968 4.46484 12.70703 15.73437 21.73437 28.94531 21.73437 13.20703 0 24.48047-9.02734 28.94141-21.73437-5.51953 10.66406-16.40625 17.92968-28.94141 17.92968" fill="#ffa185"/>
    <path d="M223.78906 298.63281c-10.77344 1.04297-19.22656 10.0625-19.33984 21.10547l-.15625 14.70313c12.08594-12.19922 17.46094-28.04297 19.49609-35.8086" fill="#302611"/>
    <path d="M225.88281 298.52734c-4.21875 0-8.14062 1.23438-11.45703 3.33985 10.60938 10.49609 26.92969 18.89453 51.73438 17.03515l-.004-.40625c-.0273-11.03906-8.98438-19.96875-20.01953-19.96875zm0 0" fill="#302611"/>
    <path d="M251.42187 331.25c0 2.42969-.82421 4.40234-1.83984 4.40234-1.01562 0-1.83984-1.97265-1.83984-4.40234 0-2.43359.82422-4.40234 1.83984-4.40234 1.01563 0 1.83984 1.96875 1.83984 4.40234" fill="#230f0c"/>
    <path d="M258.81641 325.44922c.21875-.16797-10.65235-5.36719-16.875-4.40235-.0625.10938.375-6.74218 9.01171-4.74218 8.42188 2.36718 7.80079 9.24609 7.86329 9.14453" fill="#302611"/>
    <path d="M219.51953 331.25c0 2.42969.82031 4.40234 1.83594 4.40234 1.01562 0 1.83984-1.97265 1.83984-4.40234 0-2.43359-.82422-4.40234-1.83984-4.40234-1.01563 0-1.83594 1.96875-1.83594 4.40234" fill="#230f0c"/>
    <path d="M211.67969 328.06641c-.2461-.125 9.51562-7.19141 15.80859-7.35547.0859.0976-1.57422-6.56641-9.71484-3.05078-7.85938 3.83593-6.01563 10.49218-6.09375 10.40625" fill="#302611"/>
    <path d="M216.94922 346.19922c-.11719 0-.23828-.0234-.35156-.082-.40625-.19532-.57813-.6836-.37891-1.08594l2.56641-5.31641c.19531-.40625.68359-.57422 1.08593-.3789.40625.19531.57422.67968.37891 1.08593l-2.56641 5.31641c-.14062.29297-.43359.46094-.73437.46094M211.8125 346.19922c-.11719 0-.23828-.0234-.35156-.082-.40625-.19532-.57422-.6836-.37891-1.08594l2.56641-5.31641c.19531-.40625.68359-.57422 1.08593-.3789.40625.19531.57813.67968.38282 1.08593l-2.57032 5.31641c-.14062.29297-.42968.46094-.73437.46094M253.5 346.19922c-.30078 0-.59375-.16797-.73438-.46094l-2.5664-5.31641c-.19531-.40625-.0273-.89062.3789-1.08593.40625-.19532.89063-.0274 1.08594.3789l2.57031 5.31641c.19532.40234.0273.89062-.3789 1.08594-.11719.0586-.23438.082-.35547.082M258.63672 346.19922c-.30469 0-.59375-.16797-.73438-.46094l-2.57031-5.31641c-.19141-.40625-.0234-.89062.38281-1.08593.40625-.19532.89063-.0274 1.08594.3789l2.56641 5.31641c.19922.40234.0273.89062-.37891 1.08594-.11328.0586-.23437.082-.35156.082M239.53906 341.46094c0 3.75-1.82031 5.49218-4.07031 5.49218-2.24609 0-4.07031-1.74218-4.07031-5.49218s2.625-8.98047 4.21875-8.98047c1.72656 0 3.92187 5.23047 3.92187 8.98047" fill="#de5123"/>
    <path d="M225.765625 349.8359375s3.363281 5.1015625 11.320313 4.5000005c7.953125-.601563 10.65625-7.207032 10.65625-7.207032" fill="none" stroke="#de5123" stroke-width="2" stroke-linecap="round" stroke-miterlimit="10"/>
    <path d="M249.4375 376.05859c-4.3125 2.0586-9.125 3.24219-14.21094 3.30078-5.08594-.0586-9.89844-1.24218-14.21484-3.30078-11.42188-5.45703-19.31641-17.10937-19.31641-30.61328v-21.01953c0-13.92578 11.28906-25.21484 25.21485-25.21484h16.63281c13.92187 0 25.21094 11.28906 25.21094 25.21484v21.01953c0 13.50391-7.89454 25.15625-19.31641 30.61328m12.6875 9.59375v-.71875c0-1.13281.45703-2.23047 1.29297-3.04297.14844-.14453.3164-.3125.48437-.48046 6.39844-4.98438 16.76172-8.9375 16.76172-22.69141l-3.15625-26.28125c-.0703-5.3125-.69922-10.44531-1.83203-15.28906-3.35547-14.375-11.05078-26.25391-21.07031-33.03907-5.80469-3.93359-12.39844-6.16406-19.37891-6.16406-6.98437 0-13.57812 2.23047-19.3789 6.16406-10.02344 6.78516-17.71485 18.66407-21.07422 33.03907-1.12891 4.84375-1.76172 9.97656-1.83203 15.28906l-3.15235 26.28125s-2.01172 23.90625 10.07031 39.48828c1.27344 1.79297 2.69532 3.55078 4.29688 5.24609h66.23047c2.91406-3.38281 5.38672-6.9414 7.43359-10.3125-2.65234-1.62109-5.94531-3.30468-10.05078-4.95703-2.03516-.82031-3.91016-1.66406-5.64453-2.53125" fill="#07c2b0"/>
    <path d="M268.0625 352.26562l-.008-.004c-.0312.15625-.0547.3164-.0899.47265.0664-.29296.0977-.46875.0977-.46875M234.12891 387.23047c28.3789.49609 32.82812-29.96485 33.80078-34.33203-2.30078 10.24609-9.23438 18.73828-18.49219 23.16015-4.3125 2.0586-9.12891 3.24219-14.21094 3.30078-5.08594-.0586-9.89844-1.24218-14.21484-3.30078-9.9336-4.74609-17.19531-14.17968-18.91797-25.4414l-.39844.14062s4.1836 35.98047 32.4336 36.47266" fill="#058a7f"/>
    <path d="M236.75391 283.21094c17.55468.88281 30.72656 14.5625 31.15625 15.01562-3.64454-5.80859-8.16407-10.63672-13.30469-14.11719-5.80469-3.93359-12.39844-6.16406-19.37891-6.16406-6.98437 0-13.57812 2.23047-19.3789 6.16406-5.23047 3.53907-9.8125 8.47266-13.48829 14.41407.10938-.10547 16.60157-16.20313 34.39454-15.3125" fill="#00e1cf"/>
    <path d="M204.23437 377.26172c3.76563 11.22656 10.875 19.75781 18.92188 26.1875h9.13281c-20.75781-11-28.05469-26.1875-28.05469-26.1875M243.23437 390.25c2.89454 5.45312 5.98829 9.76953 9.07422 13.20312h18.07813c.0195-.0234.0391-.0508.0586-.0742-18.87501-2.76173-27.21095-13.12892-27.21095-13.12892" fill="#058a7f"/>
    <path d="M235.46875 289.90625c-26.73438 3.36328-31.17578 23.36719-31.17578 23.36719 4.11719-8.33203 12.69531-14.0625 22.61719-14.0625h16.6289c9.07422 0 17.94922 4.30078 21.46875 11.98828-9.7539-21.29297-29.53906-21.29297-29.53906-21.29297" fill="#fff"/>
    <path d="M226.91016 299.21094h16.6289c9.07422 0 17.94922 4.30078 21.46875 11.98828-1.89062-4.1211-4.15625-7.4375-6.57812-10.1211-6.13672-3.26171-13.39063-5.65234-21.67578-5.93359-11.63672-.39453-20.13282 2.83203-26.14063 6.82422-5.08203 5.75-6.32031 11.30469-6.32031 11.30469 4.11719-8.33203 12.69531-14.0625 22.61719-14.0625" fill="#ded7a8"/>
  </g>
</svg>
