<svg xmlns="http://www.w3.org/2000/svg"
  xmlns:xlink="http://www.w3.org/1999/xlink" viewBox="0 0 41.491356 45.841817">
  <g transform="matrix(.35278 0 0 .35278 -206.625795 -96.487475)">
    <path d="M702.4375 348.54297c-.95703-5.8125-4.01563-10.28516-7.14844-13.99219-.0391-.0469-.082-.0977-.12109-.14453-2.67188-3.19922-4.10547-7.20703-3.91797-11.27734.55859-12.46875-4.08984-33.60938-29.70703-45.15625-2.80469-1.26563-5.14063-1.92579-7.09375-2.15625-.42188-.16407-.84375-.32422-1.27344-.47266-1.46875-.51172-2.98828-.91797-4.55078-1.22266-2.08203-.40234-4.23438-.61328-6.44141-.61328h-.0156c-1.15235 0-2.30469.13672-3.42578.38281-13.23828 2.90625-13.71875 12.35547-13.71875 12.35547-21.39063 1.96094-27.19922 24.41407-26.64063 36.88282.1836 4.07031-1.24609 8.07812-3.91797 11.27734-.0391.0469-.082.0977-.12109.14453-2.48047 2.93359-4.91016 6.34766-6.29297 10.52734-1.51172 3.87891-2.33984 8.1211-2.33984 12.73047 0 23.15625 27.10937 42.6211 59.10547 42.6211 31.99609 0 58.50781-11.90625 58.50781-44.78516 0-2.45312-.31641-4.82031-.88672-7.10156" fill="#eb631c"/>
    <path d="M676.08984 388.18359c-18.14453-7.30078-24.11718-16.375-22.57031-29.42968h-19.94922c1.54688 13.05468-4.42969 22.1289-22.57422 29.42968s-20.57812 15.26953-20.57812 15.26953h106.25s-2.4336-7.96875-20.57813-15.26953" fill="#6e85eb"/>
    <path d="M662.63281 380.85156c-7.65625-5.94922-10.18359-13.07031-9.11328-22.09765h-19.94922c1.06641 9.02734-1.46094 16.14843-9.11719 22.09765 0 5.00781 4.0625 9.07031 9.07422 9.07031h20.03516c5.01172 0 9.07031-4.0625 9.07031-9.07031" fill="#ff827f"/>
    <path d="M643.12891 379.64453c5.22656 0 10.16796-1.32031 14.5664-3.66797-3.78125-4.89453-4.96875-10.53515-4.17578-17.22265h-19.95312c.8125 6.82812-.44141 12.5625-4.41407 17.52734 4.25 2.15234 8.98438 3.36328 13.97657 3.36328" fill="#ff5957"/>
    <path d="M625.32031 384.69922c1.44531 3.08203 4.57031 5.22265 8.20313 5.22265h20.03906c3.63281 0 6.75781-2.14062 8.20703-5.22265zm0 0" fill="#fff"/>
    <path d="M617.47656 335.03906c3.34375 6.39453 1.94531 13.73047-3.1289 16.38672-5.07422 2.65234-11.89844-.38281-15.24219-6.78125s-1.94141-13.73047 3.13281-16.38281c5.07031-2.65625 11.89453.38281 15.23828 6.77734" fill="#ff827f"/>
    <path d="M614.54297 347.25391c-.0195-.26172-.0703-.48829-.0977-.73829.0391.17969.0625.33204.0781.45313-.0352-1.30078-.22266-2.36719-.55469-3.20313-2.64063-10.82812-12.76563-11.91796-12.76563-11.91796 5.12891 3.09375 8.33204 6.50781 10.31641 9.33984-3.64453-1.48047-9.26953 1.66016-9.26953 1.66016 6.67578-1.77344 9.71094-.30469 11.10547 1.39453.92187 1.83203 1.1875 3.01172 1.1875 3.01172" fill="#ff5957"/>
    <path d="M612.99609 348.19531l17.85938-5.75-4.96094-28.60156-13.75391-1.67578c-9.80468 22.32031.85547 36.02734.85547 36.02734" fill="#eb631c"/>
    <path d="M668.77734 335.03906c-3.34375 6.39453-1.9414 13.73047 3.13282 16.38672 5.07421 2.65234 11.89453-.38281 15.24218-6.78125 3.34375-6.39844 1.94141-13.73047-3.13281-16.38281-5.07422-2.65625-11.89453.38281-15.24219 6.77734" fill="#ff827f"/>
    <path d="M671.71484 347.25391c.0195-.26172.0664-.48829.0937-.73829-.0351.17969-.0586.33204-.0742.45313.0312-1.30078.22266-2.36719.55469-3.20313 2.64063-10.82812 12.76563-11.91796 12.76563-11.91796-5.12891 3.09375-8.33203 6.50781-10.31641 9.33984 3.64063-1.48047 9.26953 1.66016 9.26953 1.66016-6.67578-1.77344-9.71484-.30469-11.10547 1.39453-.92187 1.83203-1.1875 3.01172-1.1875 3.01172" fill="#ff5957"/>
    <path d="M673.26953 348.19531l-17.85937-5.75 4.96484-28.60156 13.75391-1.67578c9.80078 22.32031-.85938 36.02734-.85938 36.02734" fill="#eb631c"/>
    <path d="M633.78516 298.65234c-11.75 0-21.3125 9.46094-21.4336 21.21094l-.21094 20.43359c0 18.6875 13.875 33.83594 30.98829 33.83594 17.11328 0 30.98828-15.14844 30.98828-33.83594l-.0547-21.67968c-.0312-11.03516-8.98438-19.96485-20.02344-19.96485zm0 0" fill="#fdb091"/>
    <path d="M677.20312 288.27344c-2.69921-2.46485-5.80468-4.79688-9.375-6.92188v.0977c-.42187-.26172-.83984-.52735-1.27343-.77344-2.05469-1.1875-4.17188-2.28516-6.3125-3.24609-2.22657-.89844-4.15235-1.42188-5.79297-1.61328-.42188-.16407-.84375-.32422-1.27344-.47657-1.46875-.50781-2.98828-.91797-4.55078-1.21875-.41016-.0781-.82813-.14453-1.24609-.21093-.0586-.004-.11719-.008-.17969-.0117 0 0-17.74219 7.39062-19.8086 19.30468l-11.66406 3.04297-7.43359 9.07813 2.85937 23.10937s14.71094-7.44922 18.70703-25.9375c8.06641 9.61719 34.51172 25.35938 44.23047 26.47266l16.57422-15.30078c-1.33984-8.08203-5.07031-17.41797-13.46094-25.39453" fill="#eb631c"/>
    <path d="M643.12891 368.65625c-11.06641 0-20.9375-4.89844-27.40235-12.55469 5.19922 10.72266 15.51563 18.03125 27.40235 18.03125 11.88671 0 22.20312-7.30859 27.40234-18.03125-6.46484 7.65625-16.33594 12.55469-27.40234 12.55469" fill="#fdd4c5"/>
    <path d="M647.55469 340.80078c0 2.93359-1.98047 5.30859-4.42578 5.30859-2.44532 0-4.42579-2.375-4.42579-5.30859 0-2.93359 1.98047-6.60156 4.42579-6.60156 2.44531 0 4.42578 3.66797 4.42578 6.60156" fill="#ff6866"/>
    <path d="M659.07812 331.375c0 2.42969-.82031 4.40234-1.83593 4.40234-1.01563 0-1.83985-1.97265-1.83985-4.40234 0-2.43359.82422-4.40234 1.83985-4.40234 1.01562 0 1.83593 1.96875 1.83593 4.40234" fill="#230f0c"/>
    <path d="M665.89844 326.55469c.23828-.13672-9.94922-6.57422-16.23828-6.34375-.0781.10156.125-5.61719 8.46875-2.6211 8.08593 3.33203 7.69921 9.0586 7.76953 8.96485" fill="#9c4214"/>
    <path d="M627.17578 331.375c0 2.42969.82422 4.40234 1.83984 4.40234 1.01563 0 1.83985-1.97265 1.83985-4.40234 0-2.43359-.82422-4.40234-1.83985-4.40234-1.01562 0-1.83984 1.96875-1.83984 4.40234" fill="#230f0c"/>
    <path d="M619.42578 326.55469c-.23828-.13672 9.94922-6.57422 16.24219-6.34375.0781.10156-.125-5.61719-8.46875-2.6211-8.08594 3.33203-7.69922 9.0586-7.77344 8.96485" fill="#9c4214"/>
    <path d="M624.60937 346.32422c-.12109 0-.23828-.0274-.35546-.082-.40235-.19532-.57422-.6836-.37891-1.08594l2.57031-5.31641c.19531-.40625.6836-.57422 1.08594-.3789.40625.19531.57422.67968.37891 1.08593l-2.56641 5.31641c-.14063.29297-.43359.46094-.73438.46094M619.47266 346.32422c-.11719 0-.23829-.0274-.35157-.082-.40625-.19532-.57812-.6836-.3789-1.08594l2.5664-5.31641c.19532-.40625.6836-.57422 1.08594-.3789.40625.19531.57813.67968.37891 1.08593l-2.56641 5.31641c-.14062.29297-.42969.46094-.73437.46094M661.16016 346.32422c-.30469 0-.59375-.16797-.73438-.46094l-2.56641-5.31641c-.19531-.40625-.0273-.89062.37891-1.08593.40625-.19532.89063-.0274 1.08594.3789l2.57031 5.31641c.19531.40234.0234.89062-.37891 1.08594-.11718.0547-.23828.082-.35546.082M666.29687 346.32422c-.30468 0-.59375-.16797-.73437-.46094l-2.57031-5.31641c-.19532-.40625-.0234-.89062.38281-1.08593.40234-.19532.89062-.0274 1.08594.3789l2.5664 5.31641c.19532.40234.0274.89062-.3789 1.08594-.11328.0547-.23438.082-.35157.082M635.85156 352.24219c-.39844-.25782-.7539-.51953-1.0664-.76953-.37891-.30079-.4375-.84766-.13672-1.22657.30078-.375.83984-.4375 1.22656-.13672.29687.23829 7.28516 5.70704 12.26562.73047.34375-.33984.89063-.33593 1.23438.004.33984.33984.33984.89062 0 1.23047-4.35156 4.34375-10.23828 2.3164-13.52344.16797" fill="#ff6866"/>
  </g>
</svg>
