<svg xmlns="http://www.w3.org/2000/svg"
  xmlns:xlink="http://www.w3.org/1999/xlink" viewBox="0 0 37.481262 46.264111">
  <g transform="matrix(.35278 0 0 .35278 -209.632675 -29.79946)">
    <path d="M606.17969 141.28516c4.15625 3.30078 8.57422 7.64843 11.79687 10.98828h64.52735c.33984-1.4961.61328-2.77344.71093-3.42969 1.05469-2.85156 2.92969-5.86719 6.31641-7.89844 6.94141-4.17187 8.17578-11.96875 4.89453-17.80859-.74609-1.32813-1.74219-2.48828-2.89844-3.44922-.67968-.5625-1.6875-1.83203-.98437-4.09375 1.01172-3.25391.30078-6.44141-1.17969-8.05078-1.64453-1.78125-3.10937-3.88672-8.37891-3.14063-6.35546.90235-4.53906-6.332028-4.44921-11.699215.13281-7.78125-13.0586-13.59375-26.5586-.402344 0 0-2.1914 3.253907-9.27734 1.199219-7.08985-2.054688-21.52735-6.679688-31.82031 2.222656-10.28907 8.910154-.16797 18.328124-3.71094 25.523434-3.54297 7.19532-6.75 13.875 1.01172 20.03907" fill="#232b45"/>
    <path d="M634.9375 91.90625c-7.60547-1.859375-18.07813-3.085938-26.05859 3.816406-5.41797 4.691404-5.17579 9.523434-4.25 14.097654 0 0 3.95703-20.429685 30.30859-17.91406M676.34375 95.847656l.0273-.05859c.0742-1.050781.14844-2.101562.16407-3.085937.10546-6.304687-8.53125-11.3125-18.9961-5.972656 0 0 16.71485-2.574219 18.80469 9.117187M682.05469 104.28906c.043.0117 8.0664 2.21094 8.6914 10.49219.66797-2.96484-.0273-5.76562-1.38281-7.23828-1.52734-1.65625-2.90234-3.58594-7.30859-3.25391" fill="#47578c"/>
    <path d="M679.90234 200.34375c-18.14453-7.30078-24.11718-16.37109-22.5664-29.42578h-19.95313c1.54688 13.05469-4.42578 22.125-22.57031 29.42578-18.14453 7.30469-20.57813 15.26953-20.57813 15.26953h106.2461s-2.4336-7.96484-20.57813-15.26953" fill="#9968bf"/>
    <path d="M663.23828 190.56641v-.42579c-.73437-.76171-1.40234-1.54296-2-2.34375v2.76954c0 7.66796-6.21484 13.88281-13.88281 13.88281-7.66406 0-13.87891-6.21485-13.87891-13.88281v-2.76954c-.59375.80079-1.26562 1.58204-2 2.34375v.42579c0 8.75781 7.125 15.88281 15.87891 15.88281 8.75781 0 15.88281-7.125 15.88281-15.88281" fill="#28bf47"/>
    <path d="M661.23828 187.79687c-3.57031-4.8164-4.67969-10.35156-3.90625-16.8789h-19.94922c.77344 6.52734-.33594 12.0625-3.90625 16.8789v2.76954c0 7.66796 6.21485 13.88281 13.87891 13.88281 7.66797 0 13.88281-6.21485 13.88281-13.88281zm0 0" fill="#ab4523"/>
    <path d="M633.47656 188.25781c3.89453 1.14844 8.19922 1.87891 12.82422 2.19141 5.41016.36328 10.44531.0195 14.9375-.9961v-1.65625c-3.57031-4.8164-4.67969-10.34765-3.90625-16.8789h-19.94922c.77344 6.53125-.33594 12.0625-3.90625 16.8789zm0 0" fill="#9c300c"/>
    <path d="M623.10937 146.46094c4.04688 6.01562 3.46094 13.49218-1.30468 16.69922-4.76953 3.21093-11.91797.9375-15.96485-5.07422-4.04687-6.01563-3.46093-13.49219 1.3086-16.69922 4.76953-3.21094 11.91406-.9375 15.96093 5.07422" fill="#ab4523"/>
    <path d="M621.53516 158.97656c-.0469-.25781-.1211-.47656-.17579-.72656.0547.17969.0977.32812.125.44531-.17578-1.29687-.48437-2.33594-.90625-3.13672-3.83984-10.51172-14.0625-10.47656-14.0625-10.47656 5.46094 2.51953 9.03516 5.57422 11.32813 8.17969-3.79688-1.07813-9.06641 2.67969-9.06641 2.67969 6.46875-2.50782 9.66016-1.38282 11.24219.16015 1.12109 1.72656 1.51563 2.875 1.51563 2.875" fill="#852100"/>
    <path d="M670.62109 149.72656c-2.6289 6.75391-.41797 13.91797 4.94141 16.00391 5.35547 2.08203 11.83203-1.70313 14.45703-8.45703 2.62891-6.75391.41797-13.92188-4.94141-16.00391-5.35546-2.08594-11.82812 1.69922-14.45703 8.45703" fill="#ab4523"/>
    <path d="M674.90234 161.58594c-.008-.26172.0156-.49219.0156-.7461-.0156.1875-.0234.33985-.0234.46094-.11328-1.30078-.043-2.38672.19531-3.25781 1.4375-11.09766 11.41797-13.3086 11.41797-13.3086-4.77344 3.66016-7.58984 7.42188-9.25781 10.46485 3.46875-1.88281 9.43359.6289 9.43359.6289-6.85937-1.02734-9.72656.77344-10.92968 2.625-.71485 1.92969-.85157 3.13282-.85157 3.13282" fill="#852100"/>
    <path d="M616.62891 157.65234s-5.51954-20.28515-2.15235-25.82031c1.72656-2.83984 12.28125-5.10937 12.28125-5.10937zm0 0M678.08984 158.98437s4.60157-19.16406 2.67188-31.07031l-9.3086 1.42578 4.30079 29.11328zm0 0" fill="#232b45"/>
    <path d="M638.97656 112.63672c-11.2539-.0937-20.43359 8.95312-20.69922 20.21094-.12109 5.0664-.2539 10.1289-.40625 15.18359-.082 2.64062-.45703 5.25391-.94922 7.84375-3.60546 18.85156 9.76172 28.72656 29.53125 30.05469 19.96875 1.34375 34.29297-8.01563 31.63672-26.94532-.59765-4.25-.95703-8.53125-.88672-12.82031.0703-4.4375.12891-8.875.17579-13.32031.11718-10.88672-8.46094-19.85156-19.0625-19.97656-6.44532-.0859-12.89454-.16406-19.33985-.23047" fill="#ca5c35"/>
    <path d="M646.42578 181.66406c-13.53906-.875-24.25781-5.27734-29.18359-13.30859 3.17187 10.78125 14.39062 16.57812 29.20703 17.57422 15.41406 1.03515 27.45703-4.3086 30.92969-15.5-5.24219 8.29297-16.75 12.14843-30.95313 11.23437" fill="#de633d"/>
    <path d="M651.00391 154.61719c.10937 2.90234-1.6836 5.30859-3.9961 5.33984-2.29297.0312-4.1914-2.29297-4.25-5.15625-.0586-2.83203 1.67188-6.38281 3.91016-6.45312 2.25-.0742 4.22656 3.40234 4.33594 6.26953M630.13672 161.01562c-.10547 0-.21094-.0234-.3125-.0742-.36328-.1836-.50781-.65625-.33203-1.05079l2.30859-5.14843c.17578-.39063.60938-.5586.96484-.38672.36329.17969.51172.64062.33985 1.03125l-2.3086 5.17187c-.1289.28516-.38671.45313-.66015.45703M625.58203 161.07812c-.10156 0-.21094-.0234-.30859-.0742-.35547-.1836-.49219-.65235-.31641-1.04297l2.32813-5.11328c.17187-.38672.60156-.55469.95312-.38282.35547.17578.49609.63672.32422 1.02344l-2.32813 5.13672c-.125.28125-.38671.44922-.65234.45312M664.58594 160.54297c-.30078.004-.60157-.16797-.75782-.46094l-2.85546-5.32812c-.21485-.39844-.082-.88282.30078-1.08594.38281-.20313.86718-.0469 1.08203.34765l2.8789 5.32032c.22266.41015.0898.91406-.30078 1.11718-.10937.0586-.23047.0898-.34765.0898M669.73047 160.47266c-.30469.004-.60938-.16797-.77344-.46485L666 154.64062c-.22266-.39843-.0898-.89062.29687-1.09765.38282-.20313.875-.0469 1.09766.35547l2.98438 5.35547c.22656.41406.0976.92187-.29688 1.1289-.10937.0586-.23047.0859-.35156.0898" fill="#9c2600"/>
    <path d="M658.85156 161.03125c.28906 1.27734.36719 2.62891.19141 4.01172-.78516 6.17578-6.3086 10.5625-12.33203 9.79687-5.26563-.67187-9.17188-5.05468-9.54688-10.27343zm0 0" fill="#210c07"/>
    <path d="M646.71094 174.83984c-1.86328-.23828-3.55469-.94922-4.98047-1.98828 1.61719-4.73047 6.65234-7.82031 12.14844-7.12109 1.70312.21875 3.26562.78515 4.63281 1.59765-1.6875 4.9336-6.55078 8.17969-11.80078 7.51172" fill="#e61947"/>
    <path d="M667.82422 140.88672c.21875-.14063-9.79688-5.67188-15.54688-5.16016-.0664.0977 1.01563-5.61328 8.75782-3.37109 7.80078 2.64844 6.72656 8.62109 6.78906 8.53125M625.84375 142.69922c-.19922-.11328 8.52344-6.24219 13.97266-6.32031.0703.0859-.84375-5.14454-7.97266-2.125-6.84375 3.27343-5.9375 8.52734-6 8.44531" fill="#232b45"/>
    <path d="M632.875 146.62891c.0312 2.61328.98047 4.71875 2.12109 4.70703 1.14063-.0117 2.04297-2.14063 2.01172-4.75391-.0312-2.61328-.98047-4.71875-2.12109-4.70312-1.14063.0117-2.04297 2.14062-2.01172 4.75M656.71094 146.58984c-.0195 2.60938.88672 4.73828 2.02734 4.7461 1.14063.008 2.08203-2.09766 2.10547-4.71094.0234-2.61328-.88281-4.73828-2.02344-4.75-1.14453-.008-2.08594 2.10156-2.10937 4.71484" fill="#23070f"/>
    <path d="M688.91016 131.72656c1.79687-6.91797-2.3086-15.23047-6.46094-20.70703-3.34375-4.41015-11.26172-7.05078-16.47266-8.42578-2.11328-.55859-3.26953-1.98437-3.65234-3.605469-1.04688.05078-2.08985.121094-3.12891.238281-4.1289.464844-25.3789 14.027348-25.3789 14.027348s7.80468-2.19141 13.64453 2.23047c4.29297 3.25781 7.93359 5.22656 13.41015 6.34375 3.5.71484 7.53125-.85938 10.5 1.1289 5.13282 3.4375-2.96093 14.76172 6.84375 16.45703 1.64453.28516 3.25391.83203 4.86719.39844 2.5-.67188 4.59766-2.35547 6.13281-4.46875-.49609-1.00391-.66406-2.22656-.30468-3.61719" fill="#232b45"/>
  </g>
</svg>
