<svg xmlns="http://www.w3.org/2000/svg"
  xmlns:xlink="http://www.w3.org/1999/xlink" viewBox="0 0 42.901867 48.570844">
  <g transform="matrix(.35278 0 0 .35278 -109.548673 -93.758448)">
    <path d="M420.26172 329.80078c-2.23438-.38281-4.92969-.96875-5.88672-3.02344-1.12891-2.41406-.53125-5.85156.52344-7.75 5.6914-10.26562 5.82422-24.5664-2.23438-31.78906-4.91015-4.40234-11.6914-5.46094-18.58984-5.55469-.043-.38281-.0781-.72265-.0977-.97656-.20312-2.48828-.43359-5.07422-1.67578-7.12109-1.65625-2.72266-5.11719-4.03516-8.30078-3.14453-2.27734.63281-4.72266 4.60937-6.67969 4.43359-1.35156-.12109-4.27734-5.08594-5.44922-6.03125-2.08593-1.69141-4.71484-2.82813-7.42187-2.92578l.008-.0195s-11.37891-2.49219-33.61719 14.64843c-6.80468 5.24219-10.45312 9.6211-12.25781 13.17969l-.004.004s-4.74218 7.70312 2.02344 15.11328c1.98047 2.16797 3.08203 4.42187 3.64844 6.52734.78125 6.46094-.63672 10.25391-5.59766 14.69922-4.96093 4.44531-7.07031 9.30078-7.34375 10.11719-.82422 2.46875-.91406 5.52734-.63281 8.54297.85547 9.26953 5.28906 18.65234 11.10938 23.50781 5.8164 4.85156 12.76953 4.96875 17.42187.28906.50781 7.24219 5.04688 14.00391 9.83594 16.58594.93359.50391 1.87109.875 2.80859 1.13281l-.004.004s6.96093 2.4375 19.46875 2.41797c12.97656-.0234 29.32031-1.85938 37.65234-8.4336l-.004-.004c4.69922-3.28906 7.875-10.07813 7.67578-16.89063-.0625-2.21875-.3789-4.73047.76563-6.42968.64062-.94922 1.60547-1.41016 2.51953-1.85938 4.04688-1.99219 8.0625-4.60156 10.52734-9.42578 1.08985-2.13281 1.73829-4.62109 1.6875-7.14453-.14843-7.73828-5.97656-11.67188-11.8789-12.67969" fill="#3f1e42"/>
    <path d="M371.87109 268.84375c-2.08593-1.69141-4.71484-2.82813-7.42187-2.92578l.008-.0195s-11.37891-2.49219-33.61719 14.64843c-6.80468 5.24219-10.45312 9.6211-12.25781 13.17969l-.004.004s-1.1914 1.92969-1.52734 4.79297c.008-.008 10.07031-13.9375 25.68359-21.73828 15.61719-7.80079 30.63672-6.16016 30.63672-6.16016-.60156-.80469-1.13672-1.48828-1.5-1.78125M416.08984 316.60156c4.46094-9.98828 4.01953-22.6914-3.42578-29.36328-4.91015-4.40234-11.6914-5.45703-18.58984-5.55469 0 0 27.86328 5.73047 22.01562 34.91797" fill="#633068"/>
    <path d="M403.80859 388.18359c-18.14453-7.30078-24.11718-16.375-22.5664-29.42968h-19.95313c1.54688 13.05468-4.42578 22.1289-22.57031 29.42968s-20.57813 15.26953-20.57813 15.26953h106.2461s-2.42969-7.96875-20.57813-15.26953" fill="#9968bf"/>
    <path d="M355.04297 378.33203c2.16015 6.90625 8.60547 11.91797 16.22265 11.91797 7.61719 0 14.0586-5.01172 16.21875-11.91797-5.41406-5.42187-7.16796-11.79297-6.24218-19.57812h-19.95313c.92188 7.78515-.83203 14.15625-6.24609 19.57812" fill="#fa6b8a"/>
    <path d="M371.31641 379.35937c4.41796 0 9.10546-1.52734 13.50781-4.17578-3.31641-4.70703-4.33594-10.10156-3.58203-16.42968h-19.95313c.7461 6.3164-.26562 11.69531-3.5625 16.39843 4.42188 2.66797 9.13672 4.20703 13.58985 4.20703" fill="#fa4c73"/>
    <path d="M345.66797 335.03906c3.34375 6.39453 1.9414 13.73047-3.12891 16.38672-5.07422 2.65234-11.89844-.38281-15.24219-6.78125s-1.9414-13.73047 3.12891-16.38281c5.07422-2.65625 11.89844.38281 15.24219 6.77734" fill="#fa6b8a"/>
    <path d="M342.73437 347.25391c-.0195-.26172-.0703-.48829-.0976-.73829.0391.17969.0625.33204.0742.45313-.0312-1.30078-.22266-2.36719-.55078-3.20313-2.64454-10.82812-12.76563-11.91796-12.76563-11.91796 5.12891 3.09375 8.32813 6.50781 10.3125 9.33984-3.64062-1.48047-9.26562 1.66016-9.26562 1.66016 6.67578-1.77344 9.71093-.30469 11.10546 1.39453.91797 1.83203 1.1875 3.01172 1.1875 3.01172" fill="#fa3f68"/>
    <path d="M340.32812 342.85156s-9.34375-9.15625-4.26562-24.91406l10.78516-2-.96485 25.10156zm0 0" fill="#3f1e42"/>
    <path d="M396.96875 335.03906c-3.34375 6.39453-1.94141 13.73047 3.12891 16.38672 5.07421 2.65234 11.89843-.38281 15.24218-6.78125s1.94532-13.73047-3.1289-16.38281c-5.07422-2.65625-11.89844.38281-15.24219 6.77734" fill="#fa6b8a"/>
    <path d="M399.90234 347.25391c.0234-.26172.0703-.48829.0977-.73829-.0352.17969-.0625.33204-.0742.45313.0312-1.30078.22266-2.36719.55078-3.20313 2.64453-10.82812 12.76953-11.91796 12.76953-11.91796-5.13281 3.09375-8.33203 6.50781-10.3164 9.33984 3.64062-1.48047 9.26562 1.66016 9.26562 1.66016-6.67578-1.77344-9.71094-.30469-11.10547 1.39453-.91797 1.83203-1.1875 3.01172-1.1875 3.01172" fill="#fa3f68"/>
    <path d="M401.64844 342.85156s9.34375-9.15625 4.26562-24.91406l-10.78515-2 .96484 25.10156zm0 0" fill="#3f1e42"/>
    <path d="M361.97266 298.65234c-11.75 0-21.3086 9.46094-21.42969 21.21094l-.21485 20.43359c0 18.6875 16.87891 34.86719 30.98829 34.86719 14.05468 0 30.99218-16.17969 30.99218-34.86719l-.05859-21.67968c-.0273-11.03516-8.98438-19.96485-20.01953-19.96485zm0 0" fill="#f09e9e"/>
    <path d="M371.31641 369.69141c-10.51172 0-22.42188-7.5-28.96485-18.17579 4.89063 13.5 17.79297 23.64844 28.96485 23.64844 11.13671 0 24.07421-10.16015 28.96875-23.67969-6.55079 10.69532-18.48829 18.20704-28.96875 18.20704" fill="#ffbab8"/>
    <path d="M402.30859 294.07422c-9.08593-14.07031-48.22656-28.45313-66.24609 9.9414-2.91016 6.19922 4.39844 27.03907 4.39844 27.03907 2.32812 0 3.9414-1.31641 6.54297-3.27344 5.4375-4.09766 5.78515-13.09375 6.21875-21.64844 2.04687 7.32813 7.23437 16.39063 22.89062 16.57422 23.85547.28516 26.17188 10.70313 26.17188 10.70313s11.97656-20.82813.0234-39.33594" fill="#3f1e42"/>
    <path d="M375.74609 340.80078c0 2.93359-1.98437 5.30859-4.42968 5.30859-2.44141 0-4.42579-2.375-4.42579-5.30859 0-2.93359 1.98438-10.73047 4.42579-10.73047 2.44531 0 4.42968 7.79688 4.42968 10.73047" fill="#fa6182"/>
    <path d="M386.19531 333.04687c-2.21484 1.00782-4.34765 1.07813-4.76953.15625-.42187-.92578 1.02734-2.49218 3.24219-3.5 2.21094-1.01171 4.34765-1.08203 4.76562-.15625.42188.92188-1.02734 2.49219-3.23828 3.5M356.51172 333.07812c2.25.91797 4.38672.89844 4.76953-.043.38672-.9375-1.12891-2.44532-3.37891-3.36329-2.2539-.91796-4.39062-.90234-4.77343.0391-.38282.9414 1.13281 2.44922 3.38281 3.36718" fill="#230f0c"/>
    <path d="M352.79687 346.32422c-.11718 0-.23828-.0274-.35156-.082-.40625-.19532-.57422-.6836-.3789-1.08594l2.5664-5.31641c.19531-.40625.6836-.57422 1.08985-.3789.40234.19531.57421.67968.3789 1.08593l-2.57031 5.31641c-.14063.29297-.42969.46094-.73438.46094M347.66406 346.32422c-.12109 0-.24219-.0274-.35547-.082-.40625-.19532-.57422-.6836-.3789-1.08594l2.57031-5.31644c.19531-.40625.67969-.57422 1.08594-.3789.40625.19531.57422.67968.3789 1.08593l-2.57031 5.31641c-.13672.29297-.42969.46094-.73047.46094M389.35156 346.32422c-.30469 0-.59375-.16797-.73437-.46094l-2.57032-5.31641c-.19531-.40625-.0273-.89062.37891-1.08593.40625-.19532.89453-.0274 1.08984.3789l2.56641 5.31641c.19531.40234.0273.89062-.37891 1.08594-.11328.0547-.23437.082-.35156.082" fill="#fa6182"/>
    <path d="M394.48437 346.32422c-.30078 0-.58984-.16797-.73046-.46094l-2.57032-5.31641c-.19531-.40625-.0273-.89062.37891-1.08593.40625-.19532.89062-.0274 1.08594.3789l2.57031 5.31641c.19531.40234.0273.89062-.37891 1.08594-.11328.0547-.23437.082-.35547.082" fill="#fa6b8a"/>
    <path d="M362.34766 346.23047c-.34766.95312-.53907 1.98047-.53907 3.05859 0 4.82031 3.8125 8.73047 8.51172 8.73047 4.10938 0 7.53906-2.98828 8.33594-6.95703zm0 0" fill="#210c0a"/>
    <path d="M370.32031 358.01953c1.45703 0 2.82422-.38281 4.01953-1.04297-.77734-3.78906-4.34765-6.65234-8.63281-6.65234-1.32812 0-2.58594.28125-3.71484.77344.8164 3.95312 4.23437 6.92187 8.32812 6.92187" fill="#e6112b"/>
    <path d="M394.08984 326.55469c.23828-.13672-9.94922-6.57422-16.24218-6.34375-.0781.10156.6875-7.10547 9.03125-4.10938 8.08984 3.33594 7.13671 10.54688 7.21093 10.45313M347.61719 326.55469c-.23828-.13672 9.94922-6.57422 16.24218-6.34375.0781.10156-.14843-6.95313-8.49218-3.95703-8.08594 3.33593-7.67969 10.39453-7.75 10.30078" fill="#210f23"/>
  </g>
</svg>
