<svg xmlns="http://www.w3.org/2000/svg"
  xmlns:xlink="http://www.w3.org/1999/xlink" viewBox="0 0 37.482639 47.000763">
  <g transform="matrix(.35278 0 0 .35278 -65.422362 -29.06281)">
    <path d="M271.12109 200.34375c-18.14453-7.30078-24.12109-16.37109-22.57031-29.42578h-19.95312c1.54687 13.05469-4.42579 22.125-22.57032 29.42578-18.14453 7.30469-20.57812 15.26953-20.57812 15.26953h106.25s-2.4336-7.96484-20.57813-15.26953" fill="#f8e8bd"/>
    <path d="M255.80859 191.45312c-6.20703-5.625-8.23828-12.28515-7.25781-20.53906h-19.95312c.91796 7.74219-.8086 14.07813-6.14454 19.48047 2.63282 12.86328 9.15625 21.96875 16.78907 21.96875 7.42187 0 13.79687-8.60937 16.5664-20.91016" fill="#f06126"/>
    <path d="M276.55469 110.77344c.008-.0156.0195-.0391.0195-.0391-.0937-.16016-.19922-.3125-.30078-.46875-.0195-.0391-.043-.082-.0664-.1211-.16016-.25781-.32422-.5039-.48828-.74609-2.33984-3.5-5.26953-6.60156-8.66016-9.16406 1.82422-1.277349 3.00782-4.410161 1.32813-11.570318l-4.09766 7.054688c-.96484-8.707031-6.37109-13.335938-6.37109-13.335938v12.714884c-4.51561-1.785156-9.45701-2.777344-14.64061-2.777344-25.87109.679688-35.5664 8.605468-38.97265 16.156248-1.57032 2.57813-2.54297 5.66016-2.48438 9.34375 0 0-12.33594 11.65625-2.53515 30.19922l.23046.43359c2.98438 5.58985 4.46875 11.82813 4.53516 18.16407.0391 3.82031.42578 7.28515 1.04297 9.0664.88672 2.56641 3.23828 4.55469 5.91016 5.625 2.67578 1.07032 5.65625 1.31641 8.5664 1.25 10.75-.25 8.48438-9.89843 19.00391-7.83203 3.375.66016 13.19531 6.80469 16.60937 7.26953 3.41797.46485 10.76563 1.45313 14.8125-3.13672 2.55078-2.89062 3.80469-7.67187 4.08985-11.5.23047-3.0664 1.0039-6.07421 2.22656-8.89453 6.39062-14.74218 7.1875-35.72656.24219-47.6914" fill="#351711"/>
    <path d="M212.78516 147.19922c3.34375 6.39844 1.94531 13.73437-3.12891 16.38672-5.07422 2.65234-11.89453-.38282-15.24219-6.78125-3.34375-6.39453-1.9414-13.73047 3.13281-16.38282 5.07032-2.65234 11.89454.38282 15.23829 6.77735" fill="#d13517"/>
    <path d="M209.85156 159.41406c-.0195-.26172-.0703-.48437-.0977-.73828.0391.18359.0625.33594.0781.45703-.0352-1.30469-.22266-2.36719-.55469-3.20703-2.64062-10.82812-12.76562-11.91797-12.76562-11.91797 5.1289 3.09766 8.33203 6.51172 10.3164 9.34375-3.64453-1.48437-9.26953 1.65625-9.26953 1.65625 6.67578-1.76953 9.71094-.30469 11.10547 1.39453.92188 1.83203 1.1875 3.01172 1.1875 3.01172" fill="#b32102"/>
    <path d="M264.08984 147.19922c-3.34765 6.39844-1.94531 13.73437 3.12891 16.38672 5.07422 2.65234 11.89453-.38282 15.24219-6.78125 3.34375-6.39453 1.9414-13.73047-3.13282-16.38282-5.07031-2.65234-11.89453.38282-15.23828 6.77735" fill="#d13517"/>
    <path d="M267.02344 159.41406c.0195-.26172.0664-.48437.0976-.73828-.0391.18359-.0625.33594-.0781.45703.0351-1.30469.22265-2.36719.55469-3.20703 2.64062-10.82812 12.76562-11.91797 12.76562-11.91797-5.12891 3.09766-8.33203 6.51172-10.31641 9.34375 3.64454-1.48437 9.26954 1.65625 9.26954 1.65625-6.67579-1.76953-9.71094-.30469-11.10547 1.39453-.92188 1.83203-1.1875 3.01172-1.1875 3.01172" fill="#b32102"/>
    <path d="M208.17578 159.19531s-8.39453-15.36719-3.75-34.2539l9.54297 6.26953zm0 0M267.75 159.03906s9.05078-14.75781 7.00391-34.09765l-8.96094 5.58593zm0 0" fill="#351711"/>
    <path d="M268.85156 141.85547l.51953-11.07422c-.0312-11.03516-8.98437-19.96875-20.01953-19.96875h-20.25781c-11.75 0-21.3125 9.46094-21.43359 21.21094l.85937 20.43359c0 4.57422-.77344 9.10547-.46875 13.53125-.60937 11.62109 9.625 21.54297 24.97656 21.35547 3.96094-.0469 7.91797-.0469 11.87891 0 16.76562.20312 26.40234-11.64844 23.45703-24.60156.0469-1.2461.0625-2.51172.0586-3.78125.29297-3.625.6875-10.19922.42969-17.10547" fill="#ff8a63"/>
    <path d="M245.37891 183.76562c-4.25391-.0508-8.50391-.0508-12.75782 0-10.44531.11719-18.67968-3.82421-23.15234-9.67578 3.28906 7.76953 11.96094 13.39453 23.55859 13.25391 3.96094-.0469 7.91797-.0469 11.87891 0 11.30469.13672 19.36328-5.21094 22.51172-12.67969-4.25 5.53516-11.9375 9.21485-22.03906 9.10156" fill="#ffa185"/>
    <path d="M254.38672 144.60937c0 2.4336-.82422 4.40235-1.83594 4.40235-1.01562 0-1.83984-1.96875-1.83984-4.40235 0-2.43359.82422-4.40234 1.83984-4.40234 1.01172 0 1.83594 1.96875 1.83594 4.40234" fill="#35280c"/>
    <path d="M261.21094 139.79297c.23437-.14063-9.95313-6.57813-16.24219-6.34766-.0781.10547.125-7.76172 8.46875-4.76562 8.08594 3.33593 7.69922 11.20312 7.77344 11.11328" fill="#2b210a"/>
    <path d="M222.48437 144.60937c0 2.4336.82422 4.40235 1.83985 4.40235 1.01562 0 1.83984-1.96875 1.83984-4.40235 0-2.43359-.82422-4.40234-1.83984-4.40234-1.01563 0-1.83985 1.96875-1.83985 4.40234" fill="#35280c"/>
    <path d="M214.73437 139.79297c-.23828-.14063 9.95313-6.57813 16.24219-6.34766.0781.10547-.125-7.76172-8.46875-4.76562-8.08594 3.33593-7.69922 11.20312-7.77344 11.11328" fill="#2b210a"/>
    <path d="M219.91797 159.55859c-.11719 0-.23828-.0234-.35547-.082-.40625-.1914-.57422-.67969-.37891-1.08594l2.57032-5.3164c.19531-.40625.68359-.57422 1.08593-.37891.40625.19531.57422.6836.37891 1.08594l-2.56641 5.31641c-.14062.29296-.43359.46093-.73437.46093M214.78125 159.55859c-.11719 0-.23828-.0234-.35156-.082-.40625-.1914-.57813-.67969-.37891-1.08594l2.56641-5.3164c.19531-.40625.68359-.57422 1.08593-.37891.40625.19531.57813.6836.38282 1.08594l-2.57032 5.31641c-.14062.29296-.42968.46093-.73437.46093M256.46875 159.55859c-.30078 0-.59375-.16797-.73438-.46093l-2.5664-5.31641c-.19531-.40234-.0273-.89063.3789-1.08594.40625-.19531.89063-.0273 1.08594.37891l2.57031 5.3164c.19532.40625.0234.89454-.3789 1.08594-.11719.0586-.23438.082-.35547.082M261.60547 159.55859c-.30469 0-.59375-.16797-.73438-.46093l-2.57031-5.31641c-.19531-.40234-.0234-.89063.38281-1.08594.40625-.19531.89063-.0273 1.08594.37891l2.56641 5.3164c.19531.40625.0273.89454-.37891 1.08594-.11328.0586-.23437.082-.35156.082M231.16016 165.47656c-.39844-.25781-.75391-.51562-1.06641-.76953-.37891-.30078-.4375-.84766-.13672-1.22656.30078-.375.83984-.4375 1.22656-.13281.29688.23437 7.28516 5.70312 12.26563.73046.34375-.34375.89062-.33984 1.23437 0 .33985.33985.33985.89454 0 1.23438-4.35156 4.34375-10.23828 2.3125-13.52343.16406M233.76172 155.26953c.0117 2.66016 2.04297 4.80469 4.53515 4.79297 2.49219-.0117 4.50391-2.17578 4.48829-4.83594-.0117-2.66015-2.07032-9.73828-4.5625-9.72656-2.49219.0117-4.47657 7.10937-4.46094 9.76953" fill="#d13517"/>
    <path d="M276.57422 110.73438c-2.46485-4.05469-5.69922-7.61329-9.51563-10.5 1.82422-1.277349 3.00782-4.410161 1.32813-11.570318l-4.09766 7.054688c-.96484-8.710938-6.37109-13.335938-6.37109-13.335938v12.714844c-4.51563-1.785156-9.45703-2.777344-14.64063-2.777344-49.625 1.308594-39.74609 29.257818-40.09765 30.128908 2.49609 4.96094 4.51172 9.28515 4.50781 8.71094 0 0-.0898-7.64063 11.41406-8.29297 10.7461-.61328 21.98047-6.7461 26.09375-9.32813l-7.76562 9.53516s12.61718 3.52734 16.08593-8.80859l.39844 9.28125s8.52344-1.38282 4.82422-9.57813c4.17969 1.10547 7.39844 2.45703 9.875 3.84766.73438.41406 1.37891.92187 1.96094 1.48047 2.41797-1.96485 6.0039-8.5586 6-8.5625" fill="#351711"/>
    <path d="M276.55469 110.77344c.008-.0156.0195-.0391.0195-.0391-.0937-.16016-.19922-.3125-.30078-.46875-.0195-.0391-.043-.082-.0664-.1211-.16016-.25781-.32422-.5039-.48828-.74609-2.33984-3.5-5.26953-6.60156-8.66016-9.16406 0 0 13.09766 16.53125 14.25 36.55078.60547-9.71485-.85156-19.28516-4.7539-26.01172M257.91797 95.097656c-4.51563-1.785156-9.45703-2.777344-14.64063-2.777344-30.35937.800782-38.44531 11.570318-40.23047 20.011718 11.39844-20.855468 54.8711-17.234374 54.8711-17.234374" fill="#753326"/>
  </g>
</svg>
