<svg xmlns="http://www.w3.org/2000/svg"
  xmlns:xlink="http://www.w3.org/1999/xlink" viewBox="0 0 37.481258 45.467663">
  <g transform="matrix(.35278 0 0 .35278 -161.816135 -30.59591)">
    <path d="M544.38281 162.08203l3.38281-6.63281c2.91797-5.71485 3.4375-12.25781 1.98438-18.51172-2.33203-10.01953 4.66406-22.16406-1.91797-33.50781-5.11719-8.816409-12.36719-8.644534-17.29297-7.140628-3.33984-7.296874-13.02344-11.296874-32.36719-8.832031 0 0-23.83203 3.855469-23.55468 22.820309 0 0-17.60547 18.78907-2.4961 31.71094l7.35157 24.81641h.004c-.10547 1.17578-.0898 2.3789.0937 3.61328.46094 3.17578 1.9336 6.33984 4.56641 8.08203 2.5039 1.66406 5.65234 1.82422 8.63672 1.91406 10.53515.3125 21.08203.35547 31.61718.1211 4.44532-.10157 9.09766-.3086 12.94922-2.58594 5.23828-3.10156 7.64063-9.64844 7.04297-15.86719" fill="#6e2b19"/>
    <path d="M503.00781 90.300781c23.33985-1.347656 27.53125 5.988281 27.53125 5.988281-3.33984-7.296874-13.02344-11.296874-32.36719-8.828124 0 0-22.49218 3.636718-23.51562 21.242192.0742-.1836 7.16016-17.175786 28.35156-18.402349M550.53125 119.23047c.48047-5.24609.31641-10.60938-2.69922-15.80078-5.11328-8.816409-12.36719-8.644534-17.29297-7.140628 0 0 17.95313 1.753907 19.99219 22.941408" fill="#9c3f26"/>
    <path d="M544.35937 200.34375c-18.14453-7.30078-24.11718-16.37109-22.57031-29.42578h-19.94922c1.54688 13.05469-4.42578 22.125-22.57031 29.42578-18.14453 7.30469-20.57812 15.26953-20.57812 15.26953H564.9375s-2.42969-7.96484-20.57813-15.26953" fill="#fff"/>
    <path d="M493.28125 192.56641l13.84766 13.67968c2.33984 2.3086 6.04296 2.48047 8.58203.39844l15.9414-13.06641c-8.23828-6.0625-10.96484-13.34765-9.86328-22.66015h-19.94922c1.04297 8.80078-1.33984 15.78906-8.55859 21.64844" fill="#fd998a"/>
    <path d="M521.78906 170.91797h-19.94922c.75391 6.36719-.29687 11.78515-3.66406 16.51172 4.11719 2.03906 8.6875 3.18359 13.50391 3.18359 4.89062 0 9.52734-1.17969 13.69531-3.27734-3.30859-4.70703-4.33594-10.09375-3.58594-16.41797" fill="#fd6e57"/>
    <path d="M486.02734 147.19922c3.34375 6.39844 1.94141 13.73437-3.1289 16.38672-5.07422 2.65234-11.89844-.38282-15.24219-6.78125-3.34375-6.39453-1.94141-13.73047 3.12891-16.38282 5.07421-2.65234 11.89843.38282 15.24218 6.77735" fill="#fd998a"/>
    <path d="M483.09375 159.41406c-.0195-.26172-.0703-.48437-.0977-.73828.0391.18359.0625.33594.0781.45703-.0352-1.30469-.22266-2.36719-.55469-3.20703-2.64062-10.82812-12.76562-11.91797-12.76562-11.91797 5.1289 3.09766 8.33203 6.51172 10.3125 9.34375-3.64063-1.48437-9.26563 1.65625-9.26563 1.65625 6.67578-1.76953 9.71094-.30469 11.10547 1.39453.91797 1.83203 1.1875 3.01172 1.1875 3.01172" fill="#fd6e57"/>
    <path d="M537.32812 147.19922c-3.34375 6.39844-1.9414 13.73437 3.13282 16.38672 5.07031 2.65234 11.89453-.38282 15.23828-6.78125 3.34375-6.39453 1.94531-13.73047-3.12891-16.38282-5.07422-2.65234-11.89844.38282-15.24219 6.77735" fill="#fd998a"/>
    <path d="M540.26562 159.41406c.0195-.26172.0664-.48437.0937-.73828-.0352.18359-.0586.33594-.0742.45703.0312-1.30469.22265-2.36719.55078-3.20703 2.64453-10.82812 12.76953-11.91797 12.76953-11.91797-5.12891 3.09766-8.33203 6.51172-10.31641 9.34375 3.64063-1.48437 9.26953 1.65625 9.26953 1.65625-6.67578-1.76953-9.71484-.30469-11.10547 1.39453-.92187 1.83203-1.1875 3.01172-1.1875 3.01172" fill="#fd6e57"/>
    <path d="M502.33594 110.8125c-11.75 0-21.3125 9.46094-21.4336 21.21094l-.21484 20.43359c0 18.6875 13.875 33.83594 30.99219 33.83594 17.11328 0 30.98828-15.14844 30.98828-33.83594l-.0586-21.67578c-.0273-11.03516-7.62109-25.23437-18.65625-25.23437zm0 0" fill="#ebb891"/>
    <path d="M511.67969 181.75c-10.375 0-19.70313-4.30078-26.15235-11.14453 5.5 9.42969 15.15235 15.6875 26.15235 15.6875 10.99609 0 20.64843-6.25781 26.14843-15.6875-6.44921 6.84375-15.77734 11.14453-26.14843 11.14453" fill="#ffd1ae"/>
    <path d="M527.62891 143.53516c0 2.43359-.82422 4.40234-1.83985 4.40234-1.01172 0-1.83594-1.96875-1.83594-4.40234 0-2.42969.82422-4.40235 1.83594-4.40235 1.01563 0 1.83985 1.97266 1.83985 4.40235" fill="#1e2847"/>
    <path d="M534.44922 138.71875c.23828-.14063-9.94922-6.57813-16.23828-6.34766-.082.10547 1.07422-6.48828 9.41797-3.48828 8.08984 3.33203 6.75 9.92969 6.82031 9.83594" fill="#6e2b19"/>
    <path d="M495.72656 143.53516c0 2.43359.82422 4.40234 1.83985 4.40234 1.01562 0 1.83984-1.96875 1.83984-4.40234 0-2.42969-.82422-4.40235-1.83984-4.40235-1.01563 0-1.83985 1.97266-1.83985 4.40235" fill="#1e2847"/>
    <path d="M487.97656 138.71875c-.23828-.14063 9.94922-6.57813 16.24219-6.34766.0781.10547-.14844-7.36718-8.49219-4.37109-8.08594 3.33203-7.67578 10.8125-7.75 10.71875" fill="#6e2b19"/>
    <path d="M493.16016 158.48437c-.1211 0-.24219-.0234-.35547-.082-.40625-.1914-.57422-.67968-.37891-1.08593L494.99609 152c.19532-.40625.67969-.57422 1.08594-.37891.40625.19532.57422.6836.37891 1.08594l-2.56641 5.31641c-.14453.29297-.43359.46093-.73437.46093M488.02344 158.48437c-.1211 0-.24219-.0234-.35547-.082-.40235-.1914-.57422-.67968-.375-1.08593L489.85937 152c.19532-.40625.6836-.57422 1.08594-.37891.40625.19532.57422.6836.37891 1.08594l-2.56641 5.31641c-.14062.29297-.43359.46093-.73437.46093M529.71094 158.48437c-.30469 0-.59375-.16796-.73438-.46093l-2.57031-5.31641c-.19531-.40234-.0234-.89062.38281-1.08594.40625-.19531.89063-.0273 1.08594.37891l2.56641 5.31641c.19921.40625.0273.89453-.375 1.08593-.11719.0586-.23829.082-.35547.082M506.61328 155.79297c0 2.10937 2.26563 3.82422 5.06641 3.82422 2.79687 0 5.0664-1.71485 5.0664-3.82422 0-2.11328-2.26172-4.57813-5.0625-4.57813-2.79687 0-5.07031 2.46485-5.07031 4.57813M534.84766 158.48437c-.30469 0-.59375-.16796-.73438-.46093l-2.57031-5.31641c-.19531-.40234-.0273-.89062.3789-1.08594.40625-.19531.89454-.0273 1.08985.37891l2.5664 5.31641c.19532.40625.0273.89453-.3789 1.08593-.11328.0586-.23438.082-.35156.082M504.39844 164.40234c-.39453-.25781-.75391-.51562-1.0625-.76953-.37891-.30078-.4375-.84765-.14063-1.22265.30078-.375.83985-.44141 1.22656-.13672.30079.23437 7.28907 5.70312 12.26954.73047.33984-.34375.89062-.33985 1.23437 0 .33984.33984.33984.89453 0 1.23437-4.35156 4.34375-10.23828 2.3125-13.52734.16406" fill="#fd6e57"/>
    <path d="M545.82812 122.01172l-15.25781-24.085939-36.86719 10.304689-19.77734 22.13281c4.26563 2.92188 6.76172 4.16406 6.76172 4.16406s1.08203-10.41796 24.9375-10.70312c15.65625-.18359 20.84766-9.25 22.89453-16.57422.43359 8.55469.77734 17.55469 6.21484 21.64844 4.03125 3.03515 7.92188 3.08593 11.09375 2.11718zm0 0" fill="#6e2b19"/>
    <path d="M511.71875 206.76172l-10.52734 5.30078c-1.72266.86719-3.75391-.38672-3.75391-2.3125v-10.59766c0-1.92968 2.03125-3.17968 3.75391-2.3125l10.52734 5.29688c.875.4414 1.42578 1.33594 1.42578 2.3125 0 .98047-.55078 1.875-1.42578 2.3125" fill="#8c4fca"/>
    <path d="M513.21875 206.76172l10.52734 5.30078c1.72266.86719 3.75391-.38672 3.75391-2.3125v-10.59766c0-1.92968-2.03125-3.17968-3.75391-2.3125l-10.52734 5.29688c-.875.4414-1.42578 1.33594-1.42578 2.3125 0 .98047.55078 1.875 1.42578 2.3125" fill="#8c4fca"/>
    <path d="M512.46875 209.35156c-2.80469 0-5.07813-2.27344-5.07813-5.07812 0-2.80469 2.27344-5.07813 5.07813-5.07813s5.07812 2.27344 5.07812 5.07813c0 2.80468-2.27343 5.07812-5.07812 5.07812" fill="#8c4fca"/>
    <path d="M493.62891 133.63672c-7.67969 0-13.92969 6.25-13.92969 13.92969 0 7.67968 6.25 13.92578 13.92969 13.92578 7.67968 0 13.92578-6.2461 13.92578-13.92578 0-7.67969-6.2461-13.92969-13.92578-13.92969m0 1.10547c7.07812 0 12.82031 5.74218 12.82031 12.82422 0 7.07812-5.74219 12.82031-12.82031 12.82031-7.08204 0-12.82032-5.74219-12.82032-12.82031 0-7.08204 5.73828-12.82422 12.82032-12.82422M529.74609 133.63672c-7.67968 0-13.92968 6.25-13.92968 13.92969 0 7.67968 6.25 13.92578 13.92968 13.92578 7.67578 0 13.92578-6.2461 13.92578-13.92578 0-7.67969-6.25-13.92969-13.92578-13.92969m0 1.10547c7.07813 0 12.82032 5.74218 12.82032 12.82422 0 7.07812-5.74219 12.82031-12.82032 12.82031-7.08203 0-12.82422-5.74219-12.82422-12.82031 0-7.08204 5.74219-12.82422 12.82422-12.82422" fill="#2e051e"/>
    <path d="M506.82031 145.14844l-.92187-1.00782c.0508-.0469 4.88672-4.34765 11.17187-.83593l-.66797 1.1914c-5.42968-3.03515-9.54297.61719-9.58203.65235" fill="#2e051e"/>
  </g>
</svg>
