<svg viewBox="0 0 37.481 45.463"
  xmlns="http://www.w3.org/2000/svg"
  xmlns:xlink="http://www.w3.org/1999/xlink">
  <g transform="translate(12.013 112.02)">
    <path d="M19.521-99.092c-.38585-10.197-7.4607-6.9274-7.4607-6.9274l-9.2825.008s-7.9885-3.3224-8.4253 7.0349c-.43546 10.357-7.553 18.203 1.5985 23.53 5.1525 2.9986 9.4299 1.8163 12.185.20946 2.4309 1.2981 5.8897 1.9499 9.9701-.6904 8.1029-5.2448 1.8011-12.967 1.4152-23.165" fill="#e63d51"/>
    <path d="M-7.7147-88.506c-1.4084 5.3509-2.0974 9.7041 3.6656 13.06 5.1525 2.9986 9.4299 1.8163 12.185.20946 2.4309 1.2981 5.8897 1.9499 9.9701-.6904 5.0133-3.2439 4.5117-7.4386 3.31-12.579z" fill="#bd283a"/>
    <path d="M18.209-71.946c-6.401-2.5756-8.508-5.7754-7.9623-10.381H3.2091c.5457 4.6054-1.5613 7.8052-7.9623 10.381-6.401 2.5769-7.2595 5.3868-7.2595 5.3868h37.481s-.85852-2.8098-7.2595-5.3868" fill="#fff"/>
    <path d="M.81816-73.699c.49747 1.2099 1.3284 2.2448 2.3716 2.9586 1.0404.71382 2.2862 1.1038 3.5374 1.0983 1.2513.0055 2.4956-.38447 3.536-1.0983 1.0432-.71382 1.8755-1.746 2.373-2.9573-.28663 1.2816-1.0625 2.4667-2.1291 3.2894-.53055.41755-1.1383.73587-1.779.96049-.64216.21773-1.3215.3266-2.0009.33211-.68075-.0069-1.3601-.11438-2.0023-.33349-.64079-.22462-1.2485-.54295-1.7777-.96187-1.0666-.82269-1.8411-2.0078-2.1291-3.288" fill="#cae1ff"/>
    <path d="M6.7286-70.663c2.8043 0 5.0794-2.2751 5.0794-5.0808v-.39412c-1.4042-1.7529-1.8466-3.7786-1.5613-6.1901H3.2091c.28525 2.4116-.15847 4.4373-1.5613 6.1901v.39412c0 2.8057 2.2738 5.0808 5.0808 5.0808" fill="#ffa1a1"/>
    <path d="M6.7286-74.994c1.4635 0 3.1392-.73725 4.6867-1.684-1.09-1.6261-1.4249-3.4809-1.1686-5.65H3.2091c.25631 2.1704-.078549 4.0266-1.17 5.6541 1.5475.94533 3.2232 1.6798 4.6895 1.6798M-2.321-90.167c1.1796 2.2558.68488 4.8438-1.1038 5.7795-1.7901.93569-4.1975-.13505-5.3771-2.3909-1.1796-2.2572-.68488-4.8452 1.1038-5.7809 1.7901-.93569 4.1975.13505 5.3771 2.3923" fill="#ff7f7f"/>
    <path d="M-3.3559-85.859c-.00689-.09095-.024804-.17088-.034452-.26045.01378.06477.022049.11851.026183.16123-.011024-.45889-.078548-.83509-.1943-1.13-.93293-3.8199-4.5034-4.2044-4.5034-4.2044 1.8094 1.0914 2.938 2.2958 3.638 3.2949-1.2843-.52228-3.2687.58429-3.2687.58429 2.3551-.62425 3.4258-.10749 3.9178.49334.32384.64492.41892 1.0611.41892 1.0611" fill="#ff4c4c"/>
    <path d="M15.777-90.167c-1.1796 2.2558-.68489 4.8438 1.1038 5.7795 1.7901.93569 4.1975-.13505 5.3771-2.3909 1.1796-2.2572.68489-4.8452-1.1038-5.7809-1.7901-.93569-4.1975.13505-5.3771 2.3923" fill="#ff7f7f"/>
    <path d="M16.812-85.859c.0083-.09095.0248-.17088.03447-.26045-.01379.06477-.02205.11851-.02618.16123.01101-.45889.07855-.83509.1943-1.13.93293-3.8199 4.5034-4.2044 4.5034-4.2044-1.8094 1.0914-2.938 2.2958-3.638 3.2949 1.2843-.52228 3.2687.58429 3.2687.58429-2.3551-.62425-3.4258-.10749-3.9178.49334-.32384.64492-.41892 1.0611-.41892 1.0611" fill="#ff4c4c"/>
    <path d="M-3.7335-84.993c0 .38448-.31144.69729-.69591.69729-.38447 0-.69591-.31282-.69591-.69729s.31144-.69591.69591-.69591c.38447 0 .69591.31144.69591.69591M18.989-84.993c0 .38448-.31144.69729-.69591.69729-.38447 0-.69591-.31282-.69591-.69729s.31144-.69591.69591-.69591c.38447 0 .69591.31144.69591.69591" fill="#fff"/>
    <path d="M16.846-86.119s3.3817-2.2062 2.4488-9.3018l-4.1066 1.892z" fill="#e63d51"/>
    <path d="M-3.3559-85.859s-3.8392-1.4979-2.2062-7.4965l2.2062-1.6936 1.4428 7.5585z" fill="#c72b3f"/>
    <path d="M3.4323-103.79c-4.1465 0-7.5186 3.3376-7.5627 7.4827l-.29903 4.0666c0 1.5406.95085 7.2788 1.4938 9.0069.37758 1.1975 1.0818 2.2655 2.0367 3.0813 1.8383 1.5723 5.0767 3.988 7.6274 3.988 2.5466 0 5.7864-2.4212 7.6233-3.9936.94809-.81304 1.6509-1.8741 2.0285-3.0648.54708-1.7267 1.2802-4.327 1.9127-10.313l-.75103-3.175c-.40376-1.7046-1.2154-3.2839-2.3744-4.5985-1.0018-1.1369-2.4708-2.4805-4.5902-2.4805z" fill="#fdbda6"/>
    <g>
      <path d="M6.69-77.647c-2.8649 0-6.4589-2.1552-8.6913-3.7207.31695.44511.68351.85301 1.1024 1.2113 1.8383 1.5723 5.0767 3.9867 7.6261 3.9867 2.548 0 5.7878-2.4198 7.6233-3.9922.45338-.38861.84749-.83371 1.1796-1.3202-2.2145 1.571-5.9104 3.8351-8.8401 3.8351" fill="#fdd1c2"/>
      <path d="M14.761-92.633c.08406-.04823-3.5099-2.3192-5.7299-2.2379-.027552.03721.044097-2.3344 2.989-1.2774 2.8525 1.1755 2.7161 3.5484 2.7409 3.5154" fill="#a11426"/>
      <path d="M8.2899-87.499c0 1.1203-.70004 1.7639-1.5627 1.7639-.86128 0-1.5613-.64354-1.5613-1.7639 0-1.1203.70004-2.785 1.5613-2.785.86265 0 1.5627 1.6647 1.5627 2.785" fill="#ff7f7f"/>
      <path d="M12.355-90.933c0 .85714-.29077 1.553-.64906 1.553s-.64906-.69591-.64906-1.553c0-.85714.29077-1.5531.64906-1.5531s.64906.69591.64906 1.5531M1.1007-90.933c0 .85714.29077 1.553.64906 1.553s.64768-.69591.64768-1.553c0-.85714-.28939-1.5531-.64768-1.5531-.35829 0-.64906.69591-.64906 1.5531" fill="#210c07"/>
    </g>
    <g fill="#ff7f7f">
      <path d="M.19391-85.659c-.041341 0-.084061-.0096-.12402-.02893-.14332-.0689-.20257-.23978-.13367-.38309l.90537-1.8755c.068902-.14332.24116-.20257.38447-.13367.14332.0689.20257.23978.13367.3831l-.90675 1.8755c-.049609.10335-.15158.16261-.25907.16261M-1.6168-85.659c-.042719 0-.085438-.0096-.1254-.02893-.14332-.0689-.20257-.23978-.13367-.38309l.90675-1.8755c.068902-.14332.23978-.20257.38309-.13367.14332.0689.20257.23978.13367.3831l-.90675 1.8755c-.048231.10335-.15158.16261-.25769.16261M13.09-85.659c-.10749 0-.20946-.05926-.25907-.16261l-.90675-1.8755c-.0689-.14332-.0096-.31419.13367-.3831.1447-.0689.31557-.0096.38447.13367l.90537 1.8755c.0689.14332.0096.31419-.13367.38309-.03996.0193-.08268.02893-.12402.02893M14.9-85.659c-.10611 0-.20808-.05926-.25769-.16261l-.90675-1.8755c-.0689-.14332-.0096-.31419.13367-.3831.14332-.0689.31419-.0096.3831.13367l.90675 1.8755c.0689.14332.0096.31419-.13367.38309-.03996.0193-.08268.02893-.1254.02893M6.6679-82.564c-2.6279 0-3.5912-1.604-3.6435-1.6964-.071658-.1254-.028938-.28663.097841-.35829.1254-.07304.28663-.0303.35829.09646.064768.10887 1.5944 2.5921 6.3734.75517.13643-.05237.28801.01517.34037.15158.05237.13505-.01517.28801-.15158.34038-1.3463.51814-2.4612.71107-3.3748.71107"/>
    </g>
    <g>
      <path d="M19.584-98.008c-.02893-.35829-.04961-.72072-.06339-1.0845-.26734-7.0363-3.7166-7.6605-5.8305-7.3711-.32384-1.1383-1.6302-4.7832-5.2049-5.4295-5.2104-.94395-21.952 2.927-17.983 22.684 0 0 5.6858-1.3684 7.8865-3.7193.34727-.37207.73174-.75654 1.1576-1.1644 1.9926-1.9044 3.2398-5.311 6.1695-8.3096 1.4332-1.0969 3.2742-1.6399 5.9834-1.2402.54846.0799.99632.4837 1.1259 1.0225.50574 2.1029 1.9554 7.0252 5.2145 11.263 0 0 .49058-2.1911.77859-3.5843.13918-.67386.33211-1.3367.5581-1.9885.12678-.36518.23151-.77446.20809-1.0776" fill="#e63d51"/>
      <path d="M2.9899-109.66c6.3031-2.0188 9.565.6904 9.5843.69866-.80615-1.2719-2.0932-2.5659-4.0886-2.927-3.5636-.64492-12.518.96325-16.554 8.3606.027561-.0262 5.7643-4.4359 11.059-6.1323M19.491-99.657c-.42581-6.503-3.7441-7.0873-5.8002-6.8061 0 0 5.2228 1.5985 5.8002 6.8061" fill="#ff7a8a"/>
      <path d="M-1.6334-92.633c-.08406-.04823 3.5099-2.3192 5.7299-2.2379.027563.03721-.045475-2.3344-2.989-1.2774-2.8525 1.1755-2.7161 3.5484-2.7409 3.5154" fill="#a11426"/>
    </g>
  </g>
</svg>
