<svg xmlns="http://www.w3.org/2000/svg"
  xmlns:xlink="http://www.w3.org/1999/xlink" viewBox="0 0 37.482639 49.171433">
  <g transform="translate(-83.778813 115.73088)">
    <path d="M87.72413453-90.13216785s-5.47219-3.12539232-2.2572274-13.11341293c2.96553813-9.21356194 8.41567951-12.02338184 15.14326095-12.46297575 6.53328202-.4258137 9.93014389 5.35781238 10.31323938 7.30911442 0 0 6.6256075.3899849 7.32840784 7.22092034.70279682 6.82955537-1.95130204 16.56677569-1.95130204 16.56677569h-25.8258128zm0 0" fill="#511421"/>
    <path d="M88.90098-87.08945959s-3.31969526 3.0440841-2.55763883 7.33805279c.45061716 2.53696958 5.88422384 5.102874 10.25397977 6.7758132 3.7372395 1.43178034 7.84930539 1.51308503 11.64442513.24391409 3.9136284-1.3105165 8.52867776-3.41477946 10.01006923-6.35551378 2.73264835-5.42533405-6.68761877-11.60721413-6.68761877-11.60721413zm0 0" fill="#28070c"/>
    <path d="M114.00194384-71.94619864c-6.40098683-2.57555289-8.50938434-5.77535662-7.96230363-10.38076105h-7.0390207c.54708423 4.60540443-1.5613168 7.80520816-7.96230364 10.38076105-6.40098683 2.57693225-7.25950328 5.38675074-7.25950328 5.38675074h37.48263806s-.85851998-2.8098185-7.25950681-5.38675074" fill="#ffde57"/>
    <path d="M96.72410222-75.34995379c.09094963 3.12401296 2.64996783 5.62928546 5.7960294 5.62928546s5.70507623-2.5052725 5.79602587-5.62928546c-1.96645737-1.92925343-2.60724644-4.19750513-2.27651728-6.9770059h-7.0390207c.32935332 2.77950077-.3100564 5.04775247-2.2765173 6.9770059" fill="#c54c28"/>
    <path d="M102.52013162-75.10741907c1.7707786 0 3.44784884-.4327031 4.95128892-1.20302511-1.29948867-1.71290188-1.70876733-3.68349734-1.43178033-6.01651551h-7.0390207c.27698698 2.33301817-.13229167 4.30361363-1.43178034 6.0165155 1.50344008.77032202 3.18051385 1.20302512 4.95129245 1.20302512" fill="#b52800"/>
    <path d="M93.47055279-90.69440742c1.17960067 2.2572274.68626565 4.84518042-1.10380637 5.78087054-1.79007201.93568659-4.19750513-.13505039-5.3771058-2.39227426-1.17960066-2.25584803-.68488628-4.84380458 1.10518573-5.7794947 1.79007202-.9356866 4.19612577.13505038 5.37572644 2.39089842" fill="#c54c28"/>
    <path d="M92.43564745-86.3852834c-.00687917-.092329-.02342444-.17087498-.03446639-.26044878.01379361.06476647.02204861.11851217.02755195.16123003-.01241778-.46026563-.0785495-.83509201-.1956823-1.1313689-.93155204-3.81992002-4.50342696-4.20439488-4.50342696-4.20439488 1.8093619 1.0927856 2.93935496 2.29719006 3.63939659 3.2962673-1.2843298-.52365275-3.27008413.58428817-3.27008413.58428817 2.35506678-.62425084 3.4271796-.10748785 3.91776294.49195919.32521525.64629946.4189236 1.06246786.4189236 1.06246786" fill="#b52800"/>
    <path d="M111.56970692-90.69440742c-1.18098003 2.2572274-.6848863 4.84518042 1.10380989 5.78087054 1.79007202.93568659 4.1975016-.13505039 5.37710227-2.39227426 1.17960067-2.25584803.6848863-4.84380458-1.10518572-5.7794947-1.78869266-.9356866-4.19612577.13505038-5.37572644 2.39089842" fill="#c54c28"/>
    <path d="M112.60461226-86.3852834c.00687916-.092329.02480027-.17087498.03446638-.26044878-.0137936.06476647-.0220486.11851217-.02755194.16123003.0123825-.46026563.07854597-.83509201.19567877-1.1313689.93155557-3.81992002 4.50343049-4.20439488 4.50343049-4.20439488-1.80936543 1.0927856-2.93935496 2.29719006-3.63802076 3.2962673 1.28295398-.52365275 3.26870477.58428817 3.26870477.58428817-2.35506679-.62425084-3.42580023-.10748785-3.91776295.49195919-.32383588.64629946-.4189236 1.06246786-.4189236 1.06246786" fill="#b52800"/>
    <path d="M91.99192004-88.37241356s-3.48092528-4.0252508-3.55947478-9.48917168l6.19152503-.47817968zm0 0M113.14618258-88.37241356s3.48092528-4.0252508 3.55809542-9.48917168l-6.1901492-.47817968zm0 0" fill="#511421"/>
    <path d="M99.22386433-103.53083336c-4.1451388 0-7.51857622 3.33760931-7.56129761 7.48274811l-.07441142 7.20851631c0 6.59253458 4.8934122 11.93656746 10.93197632 11.93656746 6.03856059 0 10.93335215-5.34403288 10.93335215-11.93656746l-.02067278-7.64673333c-.01100667-3.89295913-3.16948602-7.0445311-7.06382451-7.0445311zm0 0" fill="#e6633d"/>
    <path d="M102.52013162-78.67240424c-3.9108732 0-7.39317431-1.77766835-9.64351196-4.54338963 1.841059 3.7565294 5.46805544 6.3127924 9.64351196 6.3127924 4.17545299 0 7.80244944-2.556263 9.64488778-6.3127924-2.25171347 2.76572128-5.73401812 4.54338963-9.64488778 4.54338963" fill="#e67d5e"/>
    <path d="M108.23347696-91.98700634c0 .85851645-.29076649 1.55304769-.64905465 1.55304769-.35829169 0-.64905818-.69453124-.64905818-1.55304769 0-.85714062.2907665-1.55305121.64905818-1.55305121.35828816 0 .64905465.6959106.64905465 1.55305121" fill="#230f0c"/>
    <path d="M110.63953072-93.68612872c.08405988-.04961114-3.50986365-2.32061803-5.72988357-2.23931334-.02755195.03720747.04409722-1.98161623 2.9889661-.92466228 2.85253988 1.17684547 2.7147343 3.19704854 2.74091747 3.16397562" fill="#511421"/>
    <path d="M96.9790406-91.98700634c0 .85851645.29076297 1.55304769.64905465 1.55304769.35828816 0 .64767882-.69453124.64767882-1.55304769 0-.85714062-.28939066-1.55305121-.64767882-1.55305121-.35829168 0-.64905465.6959106-.64905465 1.55305121" fill="#230f0c"/>
    <path d="M94.24501288-93.68612872c-.08406341-.04961114 3.50986012-2.32061803 5.72988004-2.23931334.02755195.03720747-.04547305-1.98161623-2.98896257-.92466228-2.85253988 1.17684547-2.71611366 3.19704854-2.74091747 3.16397562" fill="#511421"/>
    <path d="M96.07228884-86.71325737c-.0413385 0-.08405988-.008255-.12402255-.02892778-.14331597-.06752166-.20257205-.239776-.13367102-.38309196l.9053724-1.87552185c.06890102-.14331597.24115535-.20257205.38447132-.13367102.14194013.06890455.20257205.24115888.13367102.38309549l-.90674823 1.87551126c-.04961114.1033533-.15158508.16260586-.25907294.16260586M94.26154758-86.71325737c-.04271786 0-.08543925-.008255-.12540192-.02892778-.14331597-.06752166-.20257205-.239776-.1336675-.38309196l.90674824-1.87552185c.06890102-.14331597.23977952-.20257205.38309549-.13367102.14331597.06890455.20256852.24115888.1336675.38309549l-.90674823 1.87551126c-.04823178.1033533-.15158508.16260586-.25769358.16260586M108.96797086-86.71325737c-.10748785 0-.2094618-.05925256-.2590694-.16260586l-.90675176-1.87551126c-.06890103-.14193661-.008255-.31419094.13367102-.3830955.14331597-.06890102.3155703-.00963083.38447133.13367103l.9053724 1.87551126c.06890102.14331597.00963082.3155703-.13367103.38309197-.03996267.02067278-.08268053.02892778-.12402256.02892778M110.77871213-86.71325737c-.1061085 0-.20808244-.05925256-.25906941-.16260586l-.9053724-1.87551126c-.06890102-.14193661-.00963083-.31419094.13367103-.3830955.14331597-.06890102.31419093-.00963083.38309549.13367103l.90674823 1.87551126c.06890102.14331597.00963083.3155703-.13367103.38309197-.03996266.02067278-.08268052.02892778-.12540191.02892778M100.03828356-84.62552911c-.13918141-.09094964-.26596269-.18189928-.37620574-.27147308-.13229166-.1061085-.15434027-.29903208-.04822825-.43132374.1061085-.13229166.29627688-.15571964.4327031-.04823178.10472914.08268053 2.57003897 2.01193396 4.32841743.25769358.119888-.12126736.31419094-.11989152.4354583 0 .11989153.119888.11989153.3155703-.00141111.4354583-1.5337578 1.53237844-3.61046175.81579859-4.770769.05787672M99.64416376-87.3430186s2.8690781 1.4634774 5.73677332 0c0 0 .58566754-2.00091319-2.86769521-1.98988888-3.34174387.00963083-2.8690781 1.98988887-2.8690781 1.98988887" fill="#b52800"/>
    <path d="M115.65972419-100.48399054c-.01241778-4.68808495-3.81716483-8.4804474-8.50387395-8.4804474H98.5513817c-4.9912551 0-9.05233402 4.01835894-9.10470035 9.00961405l2.13596004 5.99584273s1.0225052-6.40098683 13.96366027-9.05370985c0 0 1.77766835 6.71242257 8.80290956 8.58517864zm0 0" fill="#511421"/>
    <path d="M92.15315007-111.36635854c5.9545007-3.80476328 13.8589276-2.77261243 18.45606292 2.59209005.10473267.12126736.2094618.24666892.31419447.37482638-.38171613-1.95130204-3.77995736-7.73492812-10.31323938-7.30911442-6.17912137.4037651-11.27786434 2.81119786-14.36742502 10.33941938.15709547-.2935217 1.90169443-3.43544835 5.910407-5.99722139" fill="#70212e"/>
    <path d="M110.76217744-108.96443793l-.15296445.19016944s.092329.04134097.25080383.1185111c-.0261761-.09646249-.05925608-.19981544-.09783938-.30868054M111.48289184-108.32778412c1.5888758.88194442 4.95680283 3.08680407 6.71242257 6.71793508-.76481162-5.24894517-5.14559539-6.4547297-6.71242257-6.71793508" fill="#70212e"/>
  </g>
</svg>
